<svg width="32" height="32" viewBox="0 0 32 32" fill="none" xmlns="http://www.w3.org/2000/svg">
<g opacity="0.5">
<path d="M2.08691 15.6522C2.08691 15.0759 2.5541 14.6087 3.13039 14.6087H28.8695C29.4458 14.6087 29.913 15.0759 29.913 15.6522C29.913 16.2285 29.4458 16.6957 28.8695 16.6957H3.13039C2.5541 16.6957 2.08691 16.2285 2.08691 15.6522Z" fill="white"/>
<path d="M2.08691 8.00002C2.08691 7.42372 2.5541 6.95654 3.13039 6.95654H28.8695C29.4458 6.95654 29.913 7.42372 29.913 8.00002C29.913 8.57632 29.4458 9.0435 28.8695 9.0435H3.13039C2.5541 9.0435 2.08691 8.57632 2.08691 8.00002Z" fill="white"/>
<path d="M2.08691 23.3044C2.08691 22.7281 2.5541 22.2609 3.13039 22.2609H19.826C20.4023 22.2609 20.8695 22.7281 20.8695 23.3044C20.8695 23.8807 20.4023 24.3478 19.826 24.3478H3.13039C2.5541 24.3478 2.08691 23.8807 2.08691 23.3044Z" fill="white"/>
</g>
</svg>
