<svg width="388" height="435" viewBox="0 0 388 435" fill="none" xmlns="http://www.w3.org/2000/svg">
<path d="M305.687 232.24L296.41 105.423C296.41 48.8703 250.563 3.02966 194.016 3.02966C137.469 3.02966 91.6223 48.8768 91.6223 105.423L82.3453 232.24C37.4346 241.027 3.54089 280.595 3.54089 328.081V403.752C3.54089 407.356 4.25068 410.923 5.62965 414.252C7.00863 417.581 9.02981 420.606 11.5778 423.154C14.1258 425.701 17.1506 427.722 20.4797 429.101C23.8087 430.479 27.3767 431.189 30.9799 431.188H357.072C364.349 431.188 371.327 428.298 376.473 423.153C381.619 418.008 384.51 411.029 384.511 403.752V328.081C384.495 280.595 350.591 241.027 305.687 232.24Z" fill="#ED184B"/>
<path d="M312.851 428.547L319.17 310.143L325.489 428.547H312.851Z" fill="#A90D2C"/>
<path d="M62.5309 428.547L68.8495 310.143L75.1681 428.547H62.5309Z" fill="#A90D2C"/>
<path d="M372.301 413.149V337.478C372.301 289.992 338.408 250.424 293.497 241.636L284.22 114.82C284.22 58.2672 238.373 12.4265 181.826 12.4265C161.86 12.3964 142.324 18.2317 125.646 29.2081C144.411 12.3226 168.772 2.99523 194.016 3.02964C250.569 3.02964 296.41 48.8768 296.41 105.423L305.687 232.24C350.601 241.027 384.495 280.595 384.495 328.081V403.752C384.494 409.276 382.826 414.671 379.709 419.231C376.593 423.791 372.172 427.305 367.026 429.312C370.459 424.623 372.307 418.961 372.301 413.149Z" fill="#A90D2C"/>
<path d="M15.7214 413.149V337.478C15.7214 289.992 49.6118 250.424 94.5257 241.636L103.803 114.82C103.803 58.2672 149.65 12.4265 206.197 12.4265C226.164 12.3959 245.701 18.2313 262.38 29.2081C243.615 12.3226 219.254 2.99523 194.01 3.02964C137.453 3.02964 91.616 48.8768 91.616 105.423L82.3389 232.24C37.4282 241.027 3.53455 280.595 3.53455 328.081V403.752C3.53506 409.276 5.20242 414.67 8.31851 419.23C11.4346 423.791 15.8544 427.304 20.9998 429.312C17.5651 424.623 15.716 418.961 15.7214 413.149Z" fill="#F48587"/>
<path d="M357.072 434.114H30.9637C22.9162 434.106 15.2007 430.905 9.50996 425.215C3.8192 419.525 0.617955 411.81 0.608521 403.762V328.081C0.613092 305.159 8.44365 282.924 22.8045 265.058C37.1653 247.191 57.1957 234.762 79.5814 229.829L88.6899 105.32C88.6899 77.3877 99.7859 50.5996 119.537 30.8486C139.288 11.0976 166.076 0.00158691 194.008 0.00158691C221.94 0.00158691 248.728 11.0976 268.479 30.8486C288.23 50.5996 299.326 77.3877 299.326 105.32L308.435 229.832C330.832 234.742 350.878 247.164 365.243 265.036C379.608 282.908 387.431 305.155 387.411 328.085V403.752C387.404 411.799 384.206 419.514 378.519 425.206C372.831 430.898 365.118 434.101 357.072 434.114ZM194.01 5.93946C167.627 5.93946 142.324 16.4201 123.668 35.0758C105.013 53.7314 94.5322 79.0339 94.5322 105.417V105.631L85.0931 234.667L82.9059 235.094C61.3636 239.341 41.9639 250.935 28.0206 267.896C14.0773 284.858 6.45557 306.134 6.45726 328.091V403.752C6.46498 410.254 9.0512 416.486 13.6485 421.083C18.2458 425.68 24.4788 428.265 30.9799 428.272H357.072C363.573 428.265 369.806 425.68 374.403 421.083C379.001 416.486 381.587 410.254 381.595 403.752V328.081C381.595 306.124 373.972 284.848 360.029 267.887C346.085 250.926 326.685 239.332 305.143 235.085L302.959 234.657L293.51 105.407C293.51 79.0242 283.029 53.7217 264.374 35.066C245.718 16.4104 220.416 5.92975 194.032 5.92975L194.01 5.93946Z" fill="#231F20"/>
<path d="M112.231 130.892C112.231 85.7289 148.846 49.1134 194.01 49.1134C239.173 49.1134 275.789 85.7289 275.789 130.892C275.789 176.056 239.173 257.375 194.01 257.375C148.846 257.375 112.231 176.059 112.231 130.892Z" fill="#840715"/>
<path d="M275.789 234.193C273.839 239.541 271.602 244.78 269.088 249.886C266.572 255.031 263.794 260.043 260.763 264.902C254.659 274.623 247.478 283.858 238.729 291.835C237.653 292.846 236.506 293.78 235.379 294.752C234.821 295.241 234.225 295.688 233.642 296.155C233.059 296.621 232.475 297.085 231.879 297.535L230.061 298.854L229.148 299.502L228.205 300.127L226.319 301.372L224.375 302.545L223.403 303.125C223.078 303.316 222.735 303.488 222.401 303.669L220.386 304.751C219.702 305.095 219.005 305.419 218.312 305.746L217.272 306.239C216.925 306.397 216.562 306.537 216.209 306.686L214.07 307.57C213.345 307.839 212.609 308.092 211.88 308.351L210.778 308.734L209.657 309.058C208.909 309.271 208.16 309.495 207.408 309.706L205.117 310.234C204.732 310.315 204.356 310.422 203.967 310.483L202.804 310.678L201.637 310.872C201.249 310.931 200.863 311.008 200.468 311.041L198.112 311.29L197.522 311.352C197.325 311.352 197.127 311.371 196.929 311.384L195.743 311.439C194.953 311.459 194.162 311.524 193.368 311.498C192.574 311.472 191.784 311.498 190.993 311.442C190.202 311.387 189.408 311.374 188.624 311.29C185.481 311.003 182.367 310.461 179.312 309.67C176.292 308.886 173.332 307.885 170.456 306.676C167.624 305.473 164.869 304.098 162.206 302.558C159.584 301.029 157.042 299.367 154.591 297.577C149.788 294.031 145.294 290.084 141.16 285.776C137.086 281.55 133.289 277.064 129.793 272.348C128.053 270.009 126.371 267.633 124.771 265.219C123.17 262.805 121.641 260.34 120.153 257.861C114.303 247.96 109.31 237.577 105.228 226.825C103.2 221.478 101.372 216.064 99.7976 210.588C98.2228 205.112 96.8587 199.571 95.8282 193.997C98.2066 199.159 100.588 204.276 103.083 209.314C104.337 211.835 105.595 214.34 106.897 216.822C108.2 219.304 109.489 221.777 110.863 224.217C116.185 233.955 122.066 243.378 128.478 252.436C130.078 254.679 131.718 256.882 133.396 259.047C135.065 261.221 136.792 263.34 138.545 265.424C140.298 267.507 142.11 269.545 143.947 271.525C145.784 273.505 147.686 275.413 149.624 277.28C153.447 280.972 157.543 284.37 161.879 287.445C164.003 288.951 166.203 290.348 168.47 291.631C170.694 292.903 172.994 294.039 175.355 295.034C179.962 297.014 184.834 298.307 189.817 298.87C190.429 298.954 191.045 298.983 191.66 299.032C192.276 299.081 192.895 299.09 193.511 299.116C194.126 299.142 194.745 299.116 195.364 299.116C195.983 299.116 196.602 299.116 197.218 299.065L199.074 298.925C199.398 298.925 199.69 298.857 199.998 298.818L200.925 298.695L201.851 298.572C202.159 298.536 202.467 298.462 202.775 298.41L204.618 298.063C209.618 296.929 214.45 295.158 218.999 292.794C223.713 290.365 228.19 287.502 232.372 284.24C240.92 277.695 248.628 269.756 255.77 261.26C259.354 257.012 262.772 252.589 266.097 248.065C269.421 243.542 272.603 238.898 275.789 234.193Z" fill="#A90D2C"/>
<path d="M112.231 103.93C112.231 58.763 148.846 22.1475 194.01 22.1475C239.173 22.1475 275.789 58.763 275.789 103.93C275.789 149.096 239.173 230.412 194.01 230.412C148.846 230.412 112.231 149.093 112.231 103.93Z" fill="#434345"/>
<path d="M124.742 117.882C124.742 72.719 161.357 36.1035 206.521 36.1035C226.517 36.0766 245.824 43.4048 260.767 56.6924C253.219 46.0108 243.217 37.2979 231.601 31.2864C219.985 25.275 207.095 22.1408 194.016 22.1475C148.85 22.1475 112.237 58.763 112.237 103.93C112.237 136.819 131.653 188.884 159.653 214.748C138.545 186.953 124.742 145.607 124.742 117.882Z" fill="#67686B"/>
<path d="M239.714 36.1035C249.633 49.9563 254.954 66.5723 254.927 83.6097C254.927 128.776 218.312 210.092 173.148 210.092C164.267 210.092 155.719 206.949 147.712 201.554C160.877 218.63 176.823 230.393 194.01 230.393C239.173 230.393 275.789 149.061 275.789 103.91C275.794 90.5169 272.507 77.3275 266.216 65.5033C259.926 53.6792 250.825 43.5829 239.714 36.1035Z" fill="#333132"/>
<mask id="mask0_1_2993" style="mask-type:alpha" maskUnits="userSpaceOnUse" x="101" y="19" width="188" height="215">
<path d="M106.934 23.617C107.55 22.1289 106.844 20.423 105.356 19.8067C103.868 19.1903 102.162 19.8969 101.545 21.3849C100.929 22.8729 101.636 24.5789 103.124 25.1952C104.612 25.8116 106.318 25.105 106.934 23.617Z" fill="#231F20"/>
<path d="M118.244 23.6192C118.861 22.1311 118.154 20.4252 116.666 19.8089C115.178 19.1925 113.472 19.8991 112.856 21.3871C112.24 22.8751 112.946 24.5811 114.434 25.1974C115.922 25.8138 117.628 25.1072 118.244 23.6192Z" fill="#231F20"/>
<path d="M129.556 23.6184C130.173 22.1304 129.466 20.4245 127.978 19.8081C126.49 19.1918 124.784 19.8984 124.168 21.3864C123.551 22.8744 124.258 24.5803 125.746 25.1967C127.234 25.8131 128.94 25.1064 129.556 23.6184Z" fill="#231F20"/>
<path d="M140.868 23.6174C141.484 22.1294 140.778 20.4235 139.29 19.8071C137.802 19.1908 136.096 19.8974 135.48 21.3854C134.863 22.8734 135.57 24.5794 137.058 25.1957C138.546 25.8121 140.252 25.1055 140.868 23.6174Z" fill="#231F20"/>
<path d="M149.485 25.4169C151.096 25.4169 152.402 24.1112 152.402 22.5006C152.402 20.89 151.096 19.5844 149.485 19.5844C147.875 19.5844 146.569 20.89 146.569 22.5006C146.569 24.1112 147.875 25.4169 149.485 25.4169Z" fill="#231F20"/>
<path d="M160.797 25.4169C162.408 25.4169 163.714 24.1112 163.714 22.5006C163.714 20.89 162.408 19.5844 160.797 19.5844C159.187 19.5844 157.881 20.89 157.881 22.5006C157.881 24.1112 159.187 25.4169 160.797 25.4169Z" fill="#231F20"/>
<path d="M172.109 25.4169C173.72 25.4169 175.026 24.1112 175.026 22.5006C175.026 20.89 173.72 19.5844 172.109 19.5844C170.499 19.5844 169.193 20.89 169.193 22.5006C169.193 24.1112 170.499 25.4169 172.109 25.4169Z" fill="#231F20"/>
<path d="M183.421 25.4169C185.032 25.4169 186.337 24.1112 186.337 22.5006C186.337 20.89 185.032 19.5844 183.421 19.5844C181.811 19.5844 180.505 20.89 180.505 22.5006C180.505 24.1112 181.811 25.4169 183.421 25.4169Z" fill="#231F20"/>
<path d="M104.908 36.9208C106.475 36.5508 107.446 34.9801 107.076 33.4126C106.706 31.845 105.136 30.8742 103.568 31.2442C102.001 31.6141 101.03 33.1848 101.4 34.7524C101.77 36.3199 103.34 37.2907 104.908 36.9208Z" fill="#231F20"/>
<path d="M116.219 36.9219C117.786 36.5519 118.757 34.9812 118.387 33.4137C118.017 31.8461 116.446 30.8753 114.879 31.2453C113.311 31.6152 112.341 33.1859 112.711 34.7535C113.081 36.321 114.651 37.2918 116.219 36.9219Z" fill="#231F20"/>
<path d="M127.53 36.9221C129.097 36.5521 130.068 34.9815 129.698 33.4139C129.328 31.8464 127.757 30.8755 126.19 31.2455C124.622 31.6155 123.651 33.1862 124.021 34.7537C124.391 36.3212 125.962 37.2921 127.53 36.9221Z" fill="#231F20"/>
<path d="M138.84 36.9223C140.408 36.5524 141.379 34.9817 141.009 33.4141C140.639 31.8466 139.068 30.8758 137.501 31.2458C135.933 31.6157 134.962 33.1864 135.332 34.7539C135.702 36.3215 137.273 37.2923 138.84 36.9223Z" fill="#231F20"/>
<path d="M149.485 36.9491C151.096 36.9491 152.402 35.6435 152.402 34.0329C152.402 32.4222 151.096 31.1166 149.485 31.1166C147.875 31.1166 146.569 32.4222 146.569 34.0329C146.569 35.6435 147.875 36.9491 149.485 36.9491Z" fill="#231F20"/>
<path d="M160.797 36.9491C162.408 36.9491 163.714 35.6435 163.714 34.0329C163.714 32.4222 162.408 31.1166 160.797 31.1166C159.187 31.1166 157.881 32.4222 157.881 34.0329C157.881 35.6435 159.187 36.9491 160.797 36.9491Z" fill="#231F20"/>
<path d="M172.109 36.9491C173.72 36.9491 175.026 35.6435 175.026 34.0329C175.026 32.4222 173.72 31.1166 172.109 31.1166C170.499 31.1166 169.193 32.4222 169.193 34.0329C169.193 35.6435 170.499 36.9491 172.109 36.9491Z" fill="#231F20"/>
<path d="M183.421 36.9491C185.032 36.9491 186.337 35.6435 186.337 34.0329C186.337 32.4222 185.032 31.1166 183.421 31.1166C181.811 31.1166 180.505 32.4222 180.505 34.0329C180.505 35.6435 181.811 36.9491 183.421 36.9491Z" fill="#231F20"/>
<path d="M106.305 47.6256C107.444 46.4867 107.444 44.6402 106.305 43.5014C105.166 42.3625 103.32 42.3625 102.181 43.5014C101.042 44.6402 101.042 46.4867 102.181 47.6256C103.32 48.7645 105.166 48.7645 106.305 47.6256Z" fill="#231F20"/>
<path d="M117.613 47.6263C118.752 46.4875 118.752 44.641 117.613 43.5021C116.474 42.3632 114.628 42.3632 113.489 43.5021C112.35 44.641 112.35 46.4875 113.489 47.6263C114.628 48.7652 116.474 48.7652 117.613 47.6263Z" fill="#231F20"/>
<path d="M128.924 47.628C130.062 46.4892 130.062 44.6427 128.924 43.5038C127.785 42.3649 125.938 42.3649 124.799 43.5038C123.66 44.6427 123.66 46.4892 124.799 47.628C125.938 48.7669 127.785 48.7669 128.924 47.628Z" fill="#231F20"/>
<path d="M140.237 47.6262C141.376 46.4873 141.376 44.6408 140.237 43.502C139.098 42.3631 137.252 42.3631 136.113 43.502C134.974 44.6408 134.974 46.4873 136.113 47.6262C137.252 48.7651 139.098 48.7651 140.237 47.6262Z" fill="#231F20"/>
<path d="M149.485 48.4815C151.096 48.4815 152.402 47.1758 152.402 45.5652C152.402 43.9546 151.096 42.6489 149.485 42.6489C147.875 42.6489 146.569 43.9546 146.569 45.5652C146.569 47.1758 147.875 48.4815 149.485 48.4815Z" fill="#231F20"/>
<path d="M160.797 48.4815C162.408 48.4815 163.714 47.1758 163.714 45.5652C163.714 43.9546 162.408 42.6489 160.797 42.6489C159.187 42.6489 157.881 43.9546 157.881 45.5652C157.881 47.1758 159.187 48.4815 160.797 48.4815Z" fill="#231F20"/>
<path d="M172.109 48.4815C173.72 48.4815 175.026 47.1758 175.026 45.5652C175.026 43.9546 173.72 42.6489 172.109 42.6489C170.499 42.6489 169.193 43.9546 169.193 45.5652C169.193 47.1758 170.499 48.4815 172.109 48.4815Z" fill="#231F20"/>
<path d="M183.421 48.4815C185.032 48.4815 186.337 47.1758 186.337 45.5652C186.337 43.9546 185.032 42.6489 183.421 42.6489C181.811 42.6489 180.505 43.9546 180.505 45.5652C180.505 47.1758 181.811 48.4815 183.421 48.4815Z" fill="#231F20"/>
<path d="M106.302 59.1543C107.44 58.0154 107.44 56.1689 106.302 55.03C105.163 53.8912 103.316 53.8912 102.177 55.03C101.038 56.1689 101.038 58.0154 102.177 59.1543C103.316 60.2932 105.163 60.2932 106.302 59.1543Z" fill="#231F20"/>
<path d="M117.613 59.1582C118.752 58.0193 118.752 56.1728 117.613 55.0339C116.474 53.8951 114.628 53.8951 113.489 55.0339C112.35 56.1728 112.35 58.0193 113.489 59.1582C114.628 60.2971 116.474 60.2971 117.613 59.1582Z" fill="#231F20"/>
<path d="M128.923 59.1566C130.062 58.0177 130.062 56.1712 128.923 55.0324C127.784 53.8935 125.938 53.8935 124.799 55.0324C123.66 56.1712 123.66 58.0177 124.799 59.1566C125.938 60.2955 127.784 60.2955 128.923 59.1566Z" fill="#231F20"/>
<path d="M140.237 59.1582C141.376 58.0193 141.376 56.1728 140.237 55.0339C139.098 53.8951 137.251 53.8951 136.113 55.0339C134.974 56.1728 134.974 58.0193 136.113 59.1582C137.251 60.2971 139.098 60.2971 140.237 59.1582Z" fill="#231F20"/>
<path d="M149.485 60.0104C151.096 60.0104 152.402 58.7048 152.402 57.0941C152.402 55.4835 151.096 54.1779 149.485 54.1779C147.875 54.1779 146.569 55.4835 146.569 57.0941C146.569 58.7048 147.875 60.0104 149.485 60.0104Z" fill="#231F20"/>
<path d="M160.797 60.0104C162.408 60.0104 163.714 58.7048 163.714 57.0941C163.714 55.4835 162.408 54.1779 160.797 54.1779C159.187 54.1779 157.881 55.4835 157.881 57.0941C157.881 58.7048 159.187 60.0104 160.797 60.0104Z" fill="#231F20"/>
<path d="M172.109 60.0104C173.72 60.0104 175.026 58.7048 175.026 57.0941C175.026 55.4835 173.72 54.1779 172.109 54.1779C170.499 54.1779 169.193 55.4835 169.193 57.0941C169.193 58.7048 170.499 60.0104 172.109 60.0104Z" fill="#231F20"/>
<path d="M183.421 60.0104C185.032 60.0104 186.337 58.7048 186.337 57.0941C186.337 55.4835 185.032 54.1779 183.421 54.1779C181.811 54.1779 180.505 55.4835 180.505 57.0941C180.505 58.7048 181.811 60.0104 183.421 60.0104Z" fill="#231F20"/>
<path d="M106.935 69.7412C107.552 68.2532 106.845 66.5473 105.357 65.9309C103.869 65.3146 102.163 66.0212 101.547 67.5092C100.93 68.9972 101.637 70.7031 103.125 71.3195C104.613 71.9359 106.319 71.2292 106.935 69.7412Z" fill="#231F20"/>
<path d="M118.246 69.7434C118.862 68.2554 118.156 66.5495 116.668 65.9331C115.18 65.3168 113.474 66.0234 112.857 67.5114C112.241 68.9994 112.948 70.7053 114.436 71.3217C115.924 71.9381 117.63 71.2314 118.246 69.7434Z" fill="#231F20"/>
<path d="M129.558 69.7426C130.174 68.2546 129.467 66.5486 127.979 65.9323C126.491 65.3159 124.785 66.0225 124.169 67.5105C123.553 68.9986 124.259 70.7045 125.747 71.3208C127.235 71.9372 128.941 71.2306 129.558 69.7426Z" fill="#231F20"/>
<path d="M140.869 69.7417C141.486 68.2537 140.779 66.5478 139.291 65.9314C137.803 65.3151 136.097 66.0217 135.481 67.5097C134.864 68.9977 135.571 70.7036 137.059 71.32C138.547 71.9363 140.253 71.2297 140.869 69.7417Z" fill="#231F20"/>
<path d="M149.485 71.5428C151.096 71.5428 152.402 70.2371 152.402 68.6265C152.402 67.0159 151.096 65.7102 149.485 65.7102C147.875 65.7102 146.569 67.0159 146.569 68.6265C146.569 70.2371 147.875 71.5428 149.485 71.5428Z" fill="#231F20"/>
<path d="M160.797 71.5428C162.408 71.5428 163.714 70.2371 163.714 68.6265C163.714 67.0159 162.408 65.7102 160.797 65.7102C159.187 65.7102 157.881 67.0159 157.881 68.6265C157.881 70.2371 159.187 71.5428 160.797 71.5428Z" fill="#231F20"/>
<path d="M172.109 71.5428C173.72 71.5428 175.026 70.2371 175.026 68.6265C175.026 67.0159 173.72 65.7102 172.109 65.7102C170.499 65.7102 169.193 67.0159 169.193 68.6265C169.193 70.2371 170.499 71.5428 172.109 71.5428Z" fill="#231F20"/>
<path d="M183.421 71.5428C185.032 71.5428 186.337 70.2371 186.337 68.6265C186.337 67.0159 185.032 65.7102 183.421 65.7102C181.811 65.7102 180.505 67.0159 180.505 68.6265C180.505 70.2371 181.811 71.5428 183.421 71.5428Z" fill="#231F20"/>
<path d="M106.933 81.2721C107.549 79.7841 106.842 78.0782 105.354 77.4618C103.866 76.8454 102.16 77.5521 101.544 79.0401C100.928 80.5281 101.634 82.234 103.122 82.8504C104.61 83.4667 106.316 82.7601 106.933 81.2721Z" fill="#231F20"/>
<path d="M118.243 81.2743C118.859 79.7863 118.153 78.0804 116.665 77.464C115.177 76.8476 113.471 77.5543 112.855 79.0423C112.238 80.5303 112.945 82.2362 114.433 82.8526C115.921 83.4689 117.627 82.7623 118.243 81.2743Z" fill="#231F20"/>
<path d="M129.555 81.2735C130.171 79.7854 129.465 78.0795 127.977 77.4631C126.489 76.8468 124.783 77.5534 124.166 79.0414C123.55 80.5294 124.257 82.2354 125.745 82.8517C127.233 83.4681 128.939 82.7615 129.555 81.2735Z" fill="#231F20"/>
<path d="M140.867 81.2726C141.483 79.7846 140.776 78.0786 139.288 77.4623C137.8 76.8459 136.094 77.5526 135.478 79.0406C134.862 80.5286 135.568 82.2345 137.056 82.8509C138.544 83.4672 140.25 82.7606 140.867 81.2726Z" fill="#231F20"/>
<path d="M149.485 83.0718C151.096 83.0718 152.402 81.7662 152.402 80.1555C152.402 78.5449 151.096 77.2393 149.485 77.2393C147.875 77.2393 146.569 78.5449 146.569 80.1555C146.569 81.7662 147.875 83.0718 149.485 83.0718Z" fill="#231F20"/>
<path d="M160.797 83.0718C162.408 83.0718 163.714 81.7662 163.714 80.1555C163.714 78.5449 162.408 77.2393 160.797 77.2393C159.187 77.2393 157.881 78.5449 157.881 80.1555C157.881 81.7662 159.187 83.0718 160.797 83.0718Z" fill="#231F20"/>
<path d="M172.109 83.0718C173.72 83.0718 175.026 81.7662 175.026 80.1555C175.026 78.5449 173.72 77.2393 172.109 77.2393C170.499 77.2393 169.193 78.5449 169.193 80.1555C169.193 81.7662 170.499 83.0718 172.109 83.0718Z" fill="#231F20"/>
<path d="M183.421 83.0718C185.032 83.0718 186.337 81.7662 186.337 80.1555C186.337 78.5449 185.032 77.2393 183.421 77.2393C181.811 77.2393 180.505 78.5449 180.505 80.1555C180.505 81.7662 181.811 83.0718 183.421 83.0718Z" fill="#231F20"/>
<path d="M104.717 94.5175C106.307 94.2594 107.386 92.7614 107.128 91.1716C106.87 89.5818 105.372 88.5022 103.782 88.7603C102.192 89.0183 101.113 90.5163 101.371 92.1061C101.629 93.696 103.127 94.7755 104.717 94.5175Z" fill="#231F20"/>
<path d="M116.025 94.5169C117.615 94.2588 118.695 92.7608 118.437 91.171C118.179 89.5812 116.681 88.5016 115.091 88.7597C113.501 89.0177 112.421 90.5157 112.679 92.1055C112.937 93.6953 114.435 94.7749 116.025 94.5169Z" fill="#231F20"/>
<path d="M127.337 94.5158C128.927 94.2577 130.006 92.7597 129.748 91.1699C129.49 89.5801 127.992 88.5005 126.402 88.7586C124.812 89.0166 123.733 90.5146 123.991 92.1044C124.249 93.6942 125.747 94.7738 127.337 94.5158Z" fill="#231F20"/>
<path d="M138.648 94.5146C140.238 94.2565 141.318 92.7585 141.06 91.1687C140.802 89.5789 139.304 88.4993 137.714 88.7573C136.124 89.0154 135.044 90.5134 135.302 92.1032C135.561 93.693 137.059 94.7726 138.648 94.5146Z" fill="#231F20"/>
<path d="M149.485 94.604C151.096 94.604 152.402 93.2984 152.402 91.6878C152.402 90.0771 151.096 88.7715 149.485 88.7715C147.875 88.7715 146.569 90.0771 146.569 91.6878C146.569 93.2984 147.875 94.604 149.485 94.604Z" fill="#231F20"/>
<path d="M160.797 94.604C162.408 94.604 163.714 93.2984 163.714 91.6878C163.714 90.0771 162.408 88.7715 160.797 88.7715C159.187 88.7715 157.881 90.0771 157.881 91.6878C157.881 93.2984 159.187 94.604 160.797 94.604Z" fill="#231F20"/>
<path d="M172.109 94.604C173.72 94.604 175.026 93.2984 175.026 91.6878C175.026 90.0771 173.72 88.7715 172.109 88.7715C170.499 88.7715 169.193 90.0771 169.193 91.6878C169.193 93.2984 170.499 94.604 172.109 94.604Z" fill="#231F20"/>
<path d="M183.421 94.604C185.032 94.604 186.337 93.2984 186.337 91.6878C186.337 90.0771 185.032 88.7715 183.421 88.7715C181.811 88.7715 180.505 90.0771 180.505 91.6878C180.505 93.2984 181.811 94.604 183.421 94.604Z" fill="#231F20"/>
<path d="M104.717 106.047C106.307 105.788 107.386 104.29 107.128 102.701C106.87 101.111 105.372 100.031 103.783 100.289C102.193 100.547 101.113 102.045 101.371 103.635C101.629 105.225 103.127 106.305 104.717 106.047Z" fill="#231F20"/>
<path d="M116.025 106.046C117.615 105.788 118.695 104.29 118.437 102.7C118.179 101.11 116.681 100.031 115.091 100.289C113.501 100.547 112.421 102.045 112.68 103.635C112.938 105.224 114.436 106.304 116.025 106.046Z" fill="#231F20"/>
<path d="M127.337 106.045C128.927 105.787 130.006 104.289 129.748 102.699C129.49 101.109 127.992 100.03 126.403 100.288C124.813 100.546 123.733 102.044 123.991 103.633C124.249 105.223 125.747 106.303 127.337 106.045Z" fill="#231F20"/>
<path d="M138.649 106.044C140.239 105.786 141.318 104.288 141.06 102.698C140.802 101.108 139.304 100.028 137.714 100.287C136.124 100.545 135.045 102.043 135.303 103.632C135.561 105.222 137.059 106.302 138.649 106.044Z" fill="#231F20"/>
<path d="M149.485 106.133C151.096 106.133 152.402 104.827 152.402 103.217C152.402 101.606 151.096 100.301 149.485 100.301C147.875 100.301 146.569 101.606 146.569 103.217C146.569 104.827 147.875 106.133 149.485 106.133Z" fill="#231F20"/>
<path d="M160.797 106.133C162.408 106.133 163.714 104.827 163.714 103.217C163.714 101.606 162.408 100.301 160.797 100.301C159.187 100.301 157.881 101.606 157.881 103.217C157.881 104.827 159.187 106.133 160.797 106.133Z" fill="#231F20"/>
<path d="M172.109 106.133C173.72 106.133 175.026 104.827 175.026 103.217C175.026 101.606 173.72 100.301 172.109 100.301C170.499 100.301 169.193 101.606 169.193 103.217C169.193 104.827 170.499 106.133 172.109 106.133Z" fill="#231F20"/>
<path d="M183.421 106.133C185.032 106.133 186.337 104.827 186.337 103.217C186.337 101.606 185.032 100.301 183.421 100.301C181.811 100.301 180.505 101.606 180.505 103.217C180.505 104.827 181.811 106.133 183.421 106.133Z" fill="#231F20"/>
<path d="M107.16 115.238C107.418 113.648 106.338 112.15 104.748 111.892C103.159 111.634 101.661 112.714 101.403 114.303C101.145 115.893 102.224 117.391 103.814 117.649C105.404 117.907 106.902 116.828 107.16 115.238Z" fill="#231F20"/>
<path d="M118.472 115.241C118.73 113.652 117.651 112.154 116.061 111.896C114.471 111.638 112.973 112.717 112.715 114.307C112.457 115.897 113.537 117.395 115.126 117.653C116.716 117.911 118.214 116.831 118.472 115.241Z" fill="#231F20"/>
<path d="M129.785 115.242C130.043 113.652 128.964 112.154 127.374 111.896C125.784 111.638 124.286 112.718 124.028 114.307C123.77 115.897 124.85 117.395 126.44 117.653C128.029 117.911 129.527 116.832 129.785 115.242Z" fill="#231F20"/>
<path d="M141.095 115.242C141.353 113.652 140.274 112.154 138.684 111.896C137.094 111.638 135.596 112.718 135.338 114.308C135.08 115.897 136.16 117.395 137.749 117.653C139.339 117.911 140.837 116.832 141.095 115.242Z" fill="#231F20"/>
<path d="M149.485 117.665C151.096 117.665 152.402 116.36 152.402 114.749C152.402 113.138 151.096 111.833 149.485 111.833C147.875 111.833 146.569 113.138 146.569 114.749C146.569 116.36 147.875 117.665 149.485 117.665Z" fill="#231F20"/>
<path d="M160.797 117.665C162.408 117.665 163.714 116.36 163.714 114.749C163.714 113.138 162.408 111.833 160.797 111.833C159.187 111.833 157.881 113.138 157.881 114.749C157.881 116.36 159.187 117.665 160.797 117.665Z" fill="#231F20"/>
<path d="M172.109 117.665C173.72 117.665 175.026 116.36 175.026 114.749C175.026 113.138 173.72 111.833 172.109 111.833C170.499 111.833 169.193 113.138 169.193 114.749C169.193 116.36 170.499 117.665 172.109 117.665Z" fill="#231F20"/>
<path d="M183.421 117.665C185.032 117.665 186.337 116.36 186.337 114.749C186.337 113.138 185.032 111.833 183.421 111.833C181.811 111.833 180.505 113.138 180.505 114.749C180.505 116.36 181.811 117.665 183.421 117.665Z" fill="#231F20"/>
<path d="M194.733 25.4169C196.344 25.4169 197.649 24.1112 197.649 22.5006C197.649 20.89 196.344 19.5844 194.733 19.5844C193.123 19.5844 191.817 20.89 191.817 22.5006C191.817 24.1112 193.123 25.4169 194.733 25.4169Z" fill="#231F20"/>
<path d="M206.514 25.3272C208.104 25.0691 209.184 23.5711 208.926 21.9813C208.668 20.3915 207.17 19.3119 205.58 19.57C203.99 19.828 202.91 21.326 203.168 22.9158C203.426 24.5056 204.924 25.5852 206.514 25.3272Z" fill="#231F20"/>
<path d="M217.826 25.3261C219.416 25.068 220.495 23.57 220.237 21.9802C219.979 20.3904 218.481 19.3108 216.891 19.5689C215.302 19.8269 214.222 21.3249 214.48 22.9147C214.738 24.5045 216.236 25.5841 217.826 25.3261Z" fill="#231F20"/>
<path d="M229.138 25.325C230.727 25.0669 231.807 23.5689 231.549 21.9791C231.291 20.3893 229.793 19.3097 228.203 19.5678C226.613 19.8258 225.534 21.3238 225.792 22.9136C226.05 24.5034 227.548 25.583 229.138 25.325Z" fill="#231F20"/>
<path d="M240.449 25.3239C242.039 25.0658 243.119 23.5678 242.86 21.978C242.602 20.3882 241.104 19.3086 239.515 19.5667C237.925 19.8247 236.845 21.3227 237.103 22.9125C237.361 24.5023 238.859 25.5819 240.449 25.3239Z" fill="#231F20"/>
<path d="M251.761 25.326C253.35 25.0679 254.43 23.5699 254.172 21.9801C253.914 20.3903 252.416 19.3107 250.826 19.5687C249.236 19.8268 248.157 21.3248 248.415 22.9146C248.673 24.5044 250.171 25.584 251.761 25.326Z" fill="#231F20"/>
<path d="M265.293 23.6174C265.909 22.1294 265.203 20.4235 263.715 19.8071C262.227 19.1908 260.521 19.8974 259.904 21.3854C259.288 22.8734 259.995 24.5794 261.483 25.1957C262.971 25.8121 264.677 25.1055 265.293 23.6174Z" fill="#231F20"/>
<path d="M276.605 23.6167C277.221 22.1287 276.514 20.4228 275.026 19.8064C273.538 19.1901 271.832 19.8967 271.216 21.3847C270.6 22.8727 271.306 24.5786 272.794 25.195C274.282 25.8113 275.988 25.1047 276.605 23.6167Z" fill="#231F20"/>
<path d="M285.692 25.3231C287.282 25.0651 288.362 23.5671 288.104 21.9773C287.846 20.3875 286.348 19.3079 284.758 19.5659C283.168 19.824 282.088 21.322 282.346 22.9118C282.604 24.5016 284.102 25.5812 285.692 25.3231Z" fill="#231F20"/>
<path d="M194.733 36.9491C196.344 36.9491 197.649 35.6435 197.649 34.0329C197.649 32.4222 196.344 31.1166 194.733 31.1166C193.123 31.1166 191.817 32.4222 191.817 34.0329C191.817 35.6435 193.123 36.9491 194.733 36.9491Z" fill="#231F20"/>
<path d="M208.105 36.0974C209.244 34.9585 209.244 33.112 208.105 31.9732C206.966 30.8343 205.119 30.8343 203.98 31.9732C202.842 33.112 202.842 34.9585 203.98 36.0974C205.119 37.2363 206.966 37.2363 208.105 36.0974Z" fill="#231F20"/>
<path d="M219.415 36.0958C220.554 34.9569 220.554 33.1104 219.415 31.9716C218.276 30.8327 216.43 30.8327 215.291 31.9716C214.152 33.1104 214.152 34.9569 215.291 36.0958C216.43 37.2347 218.276 37.2347 219.415 36.0958Z" fill="#231F20"/>
<path d="M230.729 36.0941C231.867 34.9552 231.867 33.1087 230.729 31.9699C229.59 30.831 227.743 30.831 226.604 31.9699C225.465 33.1087 225.465 34.9552 226.604 36.0941C227.743 37.233 229.59 37.233 230.729 36.0941Z" fill="#231F20"/>
<path d="M242.039 36.0957C243.178 34.9568 243.178 33.1103 242.039 31.9714C240.9 30.8326 239.054 30.8326 237.915 31.9714C236.776 33.1103 236.776 34.9568 237.915 36.0957C239.054 37.2346 240.9 37.2346 242.039 36.0957Z" fill="#231F20"/>
<path d="M253.353 36.0941C254.491 34.9552 254.491 33.1087 253.353 31.9699C252.214 30.831 250.367 30.831 249.228 31.9699C248.089 33.1087 248.089 34.9552 249.228 36.0941C250.367 37.233 252.214 37.233 253.353 36.0941Z" fill="#231F20"/>
<path d="M263.272 36.926C264.84 36.556 265.81 34.9854 265.44 33.4178C265.07 31.8503 263.5 30.8794 261.932 31.2494C260.365 31.6194 259.394 33.1901 259.764 34.7576C260.134 36.3252 261.704 37.296 263.272 36.926Z" fill="#231F20"/>
<path d="M274.583 36.9264C276.15 36.5564 277.121 34.9857 276.751 33.4182C276.381 31.8506 274.811 30.8798 273.243 31.2498C271.676 31.6198 270.705 33.1904 271.075 34.758C271.445 36.3255 273.015 37.2963 274.583 36.9264Z" fill="#231F20"/>
<path d="M285.89 36.9272C287.458 36.5573 288.429 34.9866 288.059 33.419C287.689 31.8515 286.118 30.8807 284.55 31.2506C282.983 31.6206 282.012 33.1913 282.382 34.7588C282.752 36.3264 284.323 37.2972 285.89 36.9272Z" fill="#231F20"/>
<path d="M194.733 48.4815C196.344 48.4815 197.649 47.1758 197.649 45.5652C197.649 43.9546 196.344 42.6489 194.733 42.6489C193.123 42.6489 191.817 43.9546 191.817 45.5652C191.817 47.1758 193.123 48.4815 194.733 48.4815Z" fill="#231F20"/>
<path d="M206.71 48.4597C208.278 48.0897 209.248 46.519 208.878 44.9515C208.508 43.384 206.938 42.4131 205.37 42.7831C203.803 43.1531 202.832 44.7238 203.202 46.2913C203.572 47.8588 205.143 48.8297 206.71 48.4597Z" fill="#231F20"/>
<path d="M218.021 48.4599C219.588 48.09 220.559 46.5193 220.189 44.9517C219.819 43.3842 218.249 42.4134 216.681 42.7833C215.114 43.1533 214.143 44.724 214.513 46.2915C214.883 47.8591 216.453 48.8299 218.021 48.4599Z" fill="#231F20"/>
<path d="M229.335 48.4602C230.903 48.0902 231.873 46.5195 231.503 44.952C231.133 43.3844 229.563 42.4136 227.995 42.7836C226.428 43.1536 225.457 44.7242 225.827 46.2918C226.197 47.8593 227.767 48.8302 229.335 48.4602Z" fill="#231F20"/>
<path d="M240.646 48.4604C242.213 48.0905 243.184 46.5198 242.814 44.9522C242.444 43.3847 240.873 42.4139 239.306 42.7838C237.738 43.1538 236.768 44.7245 237.138 46.292C237.508 47.8596 239.078 48.8304 240.646 48.4604Z" fill="#231F20"/>
<path d="M251.96 48.4607C253.527 48.0907 254.498 46.52 254.128 44.9525C253.758 43.3849 252.188 42.4141 250.62 42.7841C249.052 43.1541 248.082 44.7247 248.452 46.2923C248.822 47.8598 250.392 48.8306 251.96 48.4607Z" fill="#231F20"/>
<path d="M264.665 47.6266C265.804 46.4877 265.804 44.6412 264.665 43.5023C263.526 42.3635 261.68 42.3635 260.541 43.5023C259.402 44.6412 259.402 46.4877 260.541 47.6266C261.68 48.7655 263.526 48.7655 264.665 47.6266Z" fill="#231F20"/>
<path d="M275.975 47.625C277.114 46.4861 277.114 44.6396 275.975 43.5007C274.836 42.3619 272.99 42.3619 271.851 43.5007C270.712 44.6396 270.712 46.4861 271.851 47.625C272.99 48.7639 274.836 48.7639 275.975 47.625Z" fill="#231F20"/>
<path d="M287.286 47.6289C288.425 46.49 288.425 44.6435 287.286 43.5047C286.148 42.3658 284.301 42.3658 283.162 43.5047C282.023 44.6435 282.023 46.49 283.162 47.6289C284.301 48.7678 286.148 48.7678 287.286 47.6289Z" fill="#231F20"/>
<path d="M194.733 60.0104C196.344 60.0104 197.649 58.7048 197.649 57.0941C197.649 55.4835 196.344 54.1779 194.733 54.1779C193.123 54.1779 191.817 55.4835 191.817 57.0941C191.817 58.7048 193.123 60.0104 194.733 60.0104Z" fill="#231F20"/>
<path d="M206.711 59.9883C208.279 59.6183 209.249 58.0476 208.879 56.4801C208.509 54.9125 206.939 53.9417 205.371 54.3117C203.804 54.6816 202.833 56.2523 203.203 57.8199C203.573 59.3874 205.144 60.3582 206.711 59.9883Z" fill="#231F20"/>
<path d="M218.022 59.9885C219.59 59.6185 220.56 58.0479 220.19 56.4803C219.82 54.9128 218.25 53.9419 216.682 54.3119C215.115 54.6819 214.144 56.2526 214.514 57.8201C214.884 59.3877 216.454 60.3585 218.022 59.9885Z" fill="#231F20"/>
<path d="M229.333 59.9886C230.9 59.6187 231.871 58.048 231.501 56.4804C231.131 54.9129 229.56 53.9421 227.993 54.312C226.425 54.682 225.454 56.2527 225.824 57.8202C226.194 59.3878 227.765 60.3586 229.333 59.9886Z" fill="#231F20"/>
<path d="M240.647 59.989C242.214 59.619 243.185 58.0483 242.815 56.4808C242.445 54.9133 240.874 53.9424 239.307 54.3124C237.739 54.6824 236.769 56.253 237.139 57.8206C237.509 59.3881 239.079 60.359 240.647 59.989Z" fill="#231F20"/>
<path d="M251.957 59.9892C253.525 59.6193 254.496 58.0486 254.126 56.481C253.756 54.9135 252.185 53.9427 250.618 54.3126C249.05 54.6826 248.079 56.2533 248.449 57.8208C248.819 59.3884 250.39 60.3592 251.957 59.9892Z" fill="#231F20"/>
<path d="M264.664 59.1553C265.803 58.0164 265.803 56.1699 264.664 55.031C263.526 53.8921 261.679 53.8921 260.54 55.031C259.401 56.1699 259.401 58.0164 260.54 59.1553C261.679 60.2941 263.526 60.2941 264.664 59.1553Z" fill="#231F20"/>
<path d="M275.975 59.1568C277.114 58.018 277.114 56.1715 275.975 55.0326C274.836 53.8937 272.989 53.8937 271.85 55.0326C270.712 56.1715 270.712 58.018 271.85 59.1568C272.989 60.2957 274.836 60.2957 275.975 59.1568Z" fill="#231F20"/>
<path d="M287.283 59.1575C288.422 58.0186 288.422 56.1721 287.283 55.0332C286.144 53.8943 284.297 53.8943 283.159 55.0332C282.02 56.1721 282.02 58.0186 283.159 59.1575C284.297 60.2963 286.144 60.2963 287.283 59.1575Z" fill="#231F20"/>
<path d="M194.733 71.5428C196.344 71.5428 197.649 70.2371 197.649 68.6265C197.649 67.0159 196.344 65.7102 194.733 65.7102C193.123 65.7102 191.817 67.0159 191.817 68.6265C191.817 70.2371 193.123 71.5428 194.733 71.5428Z" fill="#231F20"/>
<path d="M206.517 71.4534C208.107 71.1953 209.186 69.6973 208.928 68.1075C208.67 66.5177 207.172 65.4381 205.582 65.6962C203.993 65.9543 202.913 67.4522 203.171 69.0421C203.429 70.6319 204.927 71.7115 206.517 71.4534Z" fill="#231F20"/>
<path d="M217.829 71.4523C219.418 71.1942 220.498 69.6962 220.24 68.1064C219.982 66.5166 218.484 65.437 216.894 65.6951C215.304 65.9532 214.225 67.4511 214.483 69.041C214.741 70.6308 216.239 71.7104 217.829 71.4523Z" fill="#231F20"/>
<path d="M229.14 71.4512C230.73 71.1931 231.81 69.6951 231.551 68.1053C231.293 66.5155 229.795 65.4359 228.206 65.694C226.616 65.9521 225.536 67.45 225.794 69.0399C226.052 70.6297 227.55 71.7093 229.14 71.4512Z" fill="#231F20"/>
<path d="M240.452 71.45C242.041 71.1919 243.121 69.6939 242.863 68.1041C242.605 66.5143 241.107 65.4347 239.517 65.6928C237.927 65.9508 236.848 67.4488 237.106 69.0386C237.364 70.6284 238.862 71.708 240.452 71.45Z" fill="#231F20"/>
<path d="M251.763 71.4489C253.353 71.1908 254.433 69.6928 254.175 68.103C253.917 66.5132 252.419 65.4336 250.829 65.6917C249.239 65.9497 248.159 67.4477 248.417 69.0375C248.676 70.6273 250.174 71.7069 251.763 71.4489Z" fill="#231F20"/>
<path d="M265.297 69.7417C265.914 68.2537 265.207 66.5478 263.719 65.9314C262.231 65.3151 260.525 66.0217 259.909 67.5097C259.293 68.9977 259.999 70.7036 261.487 71.32C262.975 71.9363 264.681 71.2297 265.297 69.7417Z" fill="#231F20"/>
<path d="M276.609 69.741C277.226 68.253 276.519 66.547 275.031 65.9307C273.543 65.3143 271.837 66.0209 271.221 67.509C270.604 68.997 271.311 70.7029 272.799 71.3193C274.287 71.9356 275.993 71.229 276.609 69.741Z" fill="#231F20"/>
<path d="M287.92 69.7431C288.536 68.255 287.829 66.5491 286.341 65.9328C284.853 65.3164 283.148 66.023 282.531 67.511C281.915 68.999 282.621 70.705 284.109 71.3213C285.597 71.9377 287.303 71.2311 287.92 69.7431Z" fill="#231F20"/>
<path d="M194.733 83.0718C196.344 83.0718 197.649 81.7662 197.649 80.1555C197.649 78.5449 196.344 77.2393 194.733 77.2393C193.123 77.2393 191.817 78.5449 191.817 80.1555C191.817 81.7662 193.123 83.0718 194.733 83.0718Z" fill="#231F20"/>
<path d="M206.517 82.9824C208.107 82.7244 209.187 81.2264 208.929 79.6366C208.671 78.0468 207.173 76.9672 205.583 77.2252C203.993 77.4833 202.913 78.9813 203.171 80.5711C203.429 82.1609 204.927 83.2405 206.517 82.9824Z" fill="#231F20"/>
<path d="M217.829 82.9813C219.419 82.7233 220.498 81.2253 220.24 79.6355C219.982 78.0457 218.484 76.9661 216.894 77.2241C215.304 77.4822 214.225 78.9802 214.483 80.57C214.741 82.1598 216.239 83.2394 217.829 82.9813Z" fill="#231F20"/>
<path d="M229.14 82.9803C230.73 82.7222 231.81 81.2242 231.552 79.6344C231.294 78.0446 229.796 76.965 228.206 77.223C226.616 77.4811 225.536 78.9791 225.795 80.5689C226.053 82.1587 227.551 83.2383 229.14 82.9803Z" fill="#231F20"/>
<path d="M240.452 82.9792C242.042 82.7211 243.121 81.2231 242.863 79.6333C242.605 78.0435 241.107 76.9639 239.517 77.2219C237.928 77.48 236.848 78.978 237.106 80.5678C237.364 82.1576 238.862 83.2372 240.452 82.9792Z" fill="#231F20"/>
<path d="M251.764 82.9779C253.353 82.7199 254.433 81.2219 254.175 79.6321C253.917 78.0423 252.419 76.9627 250.829 77.2207C249.239 77.4788 248.16 78.9768 248.418 80.5666C248.676 82.1564 250.174 83.236 251.764 82.9779Z" fill="#231F20"/>
<path d="M265.295 81.2727C265.911 79.7847 265.205 78.0788 263.717 77.4624C262.229 76.8461 260.523 77.5527 259.906 79.0407C259.29 80.5287 259.997 82.2346 261.485 82.851C262.973 83.4674 264.679 82.7607 265.295 81.2727Z" fill="#231F20"/>
<path d="M276.607 81.2719C277.223 79.7838 276.516 78.0779 275.028 77.4616C273.54 76.8452 271.834 77.5518 271.218 79.0398C270.602 80.5279 271.308 82.2338 272.796 82.8501C274.284 83.4665 275.99 82.7599 276.607 81.2719Z" fill="#231F20"/>
<path d="M287.917 81.2741C288.533 79.786 287.827 78.0801 286.339 77.4638C284.851 76.8474 283.145 77.554 282.528 79.042C281.912 80.5301 282.619 82.236 284.107 82.8523C285.595 83.4687 287.301 82.7621 287.917 81.2741Z" fill="#231F20"/>
<path d="M194.733 94.604C196.344 94.604 197.649 93.2984 197.649 91.6878C197.649 90.0771 196.344 88.7715 194.733 88.7715C193.123 88.7715 191.817 90.0771 191.817 91.6878C191.817 93.2984 193.123 94.604 194.733 94.604Z" fill="#231F20"/>
<path d="M208.736 92.8059C209.353 91.3179 208.646 89.612 207.158 88.9956C205.67 88.3793 203.964 89.0859 203.348 90.5739C202.731 92.0619 203.438 93.7678 204.926 94.3842C206.414 95.0006 208.12 94.2939 208.736 92.8059Z" fill="#231F20"/>
<path d="M220.048 92.8051C220.664 91.3171 219.958 89.6111 218.47 88.9948C216.982 88.3784 215.276 89.085 214.659 90.573C214.043 92.0611 214.75 93.767 216.238 94.3833C217.726 94.9997 219.432 94.2931 220.048 92.8051Z" fill="#231F20"/>
<path d="M231.36 92.8042C231.976 91.3162 231.27 89.6103 229.782 88.9939C228.294 88.3776 226.588 89.0842 225.971 90.5722C225.355 92.0602 226.061 93.7661 227.55 94.3825C229.038 94.9988 230.743 94.2922 231.36 92.8042Z" fill="#231F20"/>
<path d="M242.672 92.8034C243.288 91.3153 242.581 89.6094 241.093 88.9931C239.605 88.3767 237.899 89.0833 237.283 90.5713C236.667 92.0593 237.373 93.7653 238.861 94.3816C240.349 94.998 242.055 94.2914 242.672 92.8034Z" fill="#231F20"/>
<path d="M253.983 92.8025C254.6 91.3145 253.893 89.6086 252.405 88.9922C250.917 88.3758 249.211 89.0825 248.595 90.5705C247.978 92.0585 248.685 93.7644 250.173 94.3808C251.661 94.9971 253.367 94.2905 253.983 92.8025Z" fill="#231F20"/>
<path d="M263.076 94.5092C264.666 94.2511 265.745 92.7531 265.487 91.1633C265.229 89.5735 263.731 88.4939 262.142 88.752C260.552 89.01 259.472 90.508 259.73 92.0978C259.988 93.6876 261.486 94.7672 263.076 94.5092Z" fill="#231F20"/>
<path d="M274.388 94.5081C275.977 94.25 277.057 92.752 276.799 91.1622C276.541 89.5724 275.043 88.4928 273.453 88.7509C271.863 89.0089 270.784 90.5069 271.042 92.0967C271.3 93.6866 272.798 94.7661 274.388 94.5081Z" fill="#231F20"/>
<path d="M285.696 94.5106C287.286 94.2526 288.365 92.7546 288.107 91.1648C287.849 89.575 286.351 88.4954 284.761 88.7534C283.172 89.0115 282.092 90.5095 282.35 92.0993C282.608 93.6891 284.106 94.7687 285.696 94.5106Z" fill="#231F20"/>
<path d="M194.733 106.133C196.344 106.133 197.649 104.827 197.649 103.217C197.649 101.606 196.344 100.301 194.733 100.301C193.123 100.301 191.817 101.606 191.817 103.217C191.817 104.827 193.123 106.133 194.733 106.133Z" fill="#231F20"/>
<path d="M208.734 104.334C209.35 102.846 208.643 101.14 207.155 100.523C205.667 99.907 203.961 100.614 203.345 102.102C202.729 103.59 203.435 105.296 204.923 105.912C206.411 106.528 208.117 105.822 208.734 104.334Z" fill="#231F20"/>
<path d="M220.045 104.333C220.662 102.845 219.955 101.139 218.467 100.522C216.979 99.9061 215.273 100.613 214.657 102.101C214.04 103.589 214.747 105.295 216.235 105.911C217.723 106.527 219.429 105.821 220.045 104.333Z" fill="#231F20"/>
<path d="M231.357 104.335C231.973 102.847 231.267 101.141 229.779 100.525C228.291 99.9084 226.585 100.615 225.969 102.103C225.352 103.591 226.059 105.297 227.547 105.913C229.035 106.53 230.741 105.823 231.357 104.335Z" fill="#231F20"/>
<path d="M242.669 104.334C243.285 102.846 242.579 101.14 241.091 100.524C239.603 99.9077 237.897 100.614 237.28 102.102C236.664 103.59 237.371 105.296 238.859 105.913C240.347 106.529 242.053 105.822 242.669 104.334Z" fill="#231F20"/>
<path d="M253.981 104.333C254.597 102.845 253.89 101.139 252.402 100.523C250.914 99.9067 249.208 100.613 248.592 102.101C247.976 103.589 248.682 105.295 250.17 105.912C251.658 106.528 253.364 105.821 253.981 104.333Z" fill="#231F20"/>
<path d="M263.076 106.038C264.666 105.78 265.746 104.282 265.488 102.692C265.23 101.103 263.732 100.023 262.142 100.281C260.552 100.539 259.472 102.037 259.73 103.627C259.989 105.217 261.487 106.296 263.076 106.038Z" fill="#231F20"/>
<path d="M274.388 106.037C275.978 105.779 277.057 104.281 276.799 102.691C276.541 101.101 275.043 100.022 273.453 100.28C271.864 100.538 270.784 102.036 271.042 103.626C271.3 105.216 272.798 106.295 274.388 106.037Z" fill="#231F20"/>
<path d="M285.696 106.04C287.286 105.782 288.366 104.284 288.108 102.694C287.849 101.104 286.351 100.025 284.762 100.283C283.172 100.541 282.092 102.039 282.35 103.628C282.608 105.218 284.106 106.298 285.696 106.04Z" fill="#231F20"/>
<path d="M194.733 117.665C196.344 117.665 197.649 116.36 197.649 114.749C197.649 113.138 196.344 111.833 194.733 111.833C193.123 111.833 191.817 113.138 191.817 114.749C191.817 116.36 193.123 117.665 194.733 117.665Z" fill="#231F20"/>
<path d="M206.353 117.547C207.955 117.388 209.126 115.96 208.967 114.357C208.808 112.754 207.38 111.584 205.777 111.743C204.175 111.901 203.004 113.329 203.163 114.932C203.322 116.535 204.75 117.706 206.353 117.547Z" fill="#231F20"/>
<path d="M217.665 117.546C219.267 117.387 220.438 115.959 220.279 114.356C220.12 112.753 218.692 111.583 217.089 111.742C215.487 111.901 214.316 113.329 214.475 114.931C214.634 116.534 216.062 117.705 217.665 117.546Z" fill="#231F20"/>
<path d="M228.976 117.545C230.579 117.386 231.75 115.958 231.591 114.355C231.432 112.752 230.004 111.582 228.401 111.741C226.798 111.9 225.628 113.328 225.787 114.93C225.946 116.533 227.374 117.704 228.976 117.545Z" fill="#231F20"/>
<path d="M240.288 117.544C241.891 117.385 243.062 115.957 242.903 114.354C242.744 112.751 241.316 111.581 239.713 111.74C238.11 111.899 236.94 113.327 237.099 114.929C237.258 116.532 238.686 117.703 240.288 117.544Z" fill="#231F20"/>
<path d="M251.6 117.543C253.203 117.384 254.373 115.956 254.215 114.353C254.056 112.75 252.628 111.58 251.025 111.739C249.422 111.897 248.252 113.326 248.41 114.928C248.569 116.531 249.997 117.702 251.6 117.543Z" fill="#231F20"/>
<path d="M265.529 115.239C265.787 113.649 264.707 112.151 263.117 111.893C261.527 111.635 260.029 112.715 259.771 114.305C259.513 115.895 260.593 117.393 262.183 117.651C263.772 117.909 265.27 116.829 265.529 115.239Z" fill="#231F20"/>
<path d="M273.913 117.665C274.49 117.665 275.054 117.494 275.534 117.174C276.013 116.853 276.387 116.398 276.608 115.865C276.828 115.332 276.886 114.746 276.774 114.18C276.661 113.614 276.383 113.095 275.975 112.687C275.568 112.279 275.048 112.001 274.482 111.889C273.917 111.776 273.33 111.834 272.797 112.055C272.264 112.275 271.809 112.649 271.489 113.129C271.168 113.608 270.997 114.172 270.997 114.749C270.997 115.522 271.304 116.264 271.851 116.811C272.398 117.358 273.14 117.665 273.913 117.665Z" fill="#231F20"/>
<path d="M288.151 115.243C288.409 113.653 287.329 112.155 285.74 111.897C284.15 111.639 282.652 112.719 282.394 114.309C282.136 115.898 283.215 117.396 284.805 117.655C286.395 117.913 287.893 116.833 288.151 115.243Z" fill="#231F20"/>
<path d="M107.054 126.524C107.212 124.921 106.042 123.493 104.439 123.334C102.836 123.176 101.408 124.347 101.25 125.949C101.091 127.552 102.262 128.98 103.865 129.139C105.467 129.297 106.895 128.126 107.054 126.524Z" fill="#231F20"/>
<path d="M118.365 126.527C118.523 124.924 117.352 123.496 115.75 123.337C114.147 123.179 112.719 124.35 112.56 125.952C112.402 127.555 113.573 128.983 115.175 129.142C116.778 129.3 118.206 128.129 118.365 126.527Z" fill="#231F20"/>
<path d="M129.675 126.523C129.834 124.921 128.663 123.493 127.06 123.334C125.458 123.176 124.03 124.346 123.871 125.949C123.713 127.552 124.883 128.98 126.486 129.138C128.089 129.297 129.517 128.126 129.675 126.523Z" fill="#231F20"/>
<path d="M140.986 126.523C141.145 124.92 139.974 123.493 138.371 123.334C136.769 123.175 135.341 124.346 135.182 125.949C135.024 127.552 136.194 128.98 137.797 129.138C139.4 129.297 140.828 128.126 140.986 126.523Z" fill="#231F20"/>
<path d="M149.485 129.198C151.096 129.198 152.402 127.892 152.402 126.281C152.402 124.671 151.096 123.365 149.485 123.365C147.875 123.365 146.569 124.671 146.569 126.281C146.569 127.892 147.875 129.198 149.485 129.198Z" fill="#231F20"/>
<path d="M160.797 129.198C162.408 129.198 163.714 127.892 163.714 126.281C163.714 124.671 162.408 123.365 160.797 123.365C159.187 123.365 157.881 124.671 157.881 126.281C157.881 127.892 159.187 129.198 160.797 129.198Z" fill="#231F20"/>
<path d="M172.109 129.198C173.72 129.198 175.026 127.892 175.026 126.281C175.026 124.671 173.72 123.365 172.109 123.365C170.499 123.365 169.193 124.671 169.193 126.281C169.193 127.892 170.499 129.198 172.109 129.198Z" fill="#231F20"/>
<path d="M183.421 129.198C185.032 129.198 186.337 127.892 186.337 126.281C186.337 124.671 185.032 123.365 183.421 123.365C181.811 123.365 180.505 124.671 180.505 126.281C180.505 127.892 181.811 129.198 183.421 129.198Z" fill="#231F20"/>
<path d="M105.357 140.504C106.845 139.888 107.551 138.182 106.935 136.694C106.319 135.206 104.613 134.499 103.125 135.116C101.637 135.732 100.93 137.438 101.546 138.926C102.163 140.414 103.869 141.12 105.357 140.504Z" fill="#231F20"/>
<path d="M116.666 140.502C118.154 139.886 118.861 138.18 118.245 136.692C117.628 135.204 115.922 134.497 114.434 135.114C112.946 135.73 112.24 137.436 112.856 138.924C113.472 140.412 115.178 141.119 116.666 140.502Z" fill="#231F20"/>
<path d="M127.976 140.503C129.464 139.886 130.171 138.18 129.554 136.692C128.938 135.204 127.232 134.498 125.744 135.114C124.256 135.73 123.549 137.436 124.166 138.924C124.782 140.412 126.488 141.119 127.976 140.503Z" fill="#231F20"/>
<path d="M139.289 140.503C140.777 139.886 141.483 138.18 140.867 136.692C140.251 135.204 138.545 134.498 137.057 135.114C135.569 135.73 134.862 137.436 135.479 138.924C136.095 140.412 137.801 141.119 139.289 140.503Z" fill="#231F20"/>
<path d="M149.485 140.727C151.096 140.727 152.402 139.421 152.402 137.81C152.402 136.2 151.096 134.894 149.485 134.894C147.875 134.894 146.569 136.2 146.569 137.81C146.569 139.421 147.875 140.727 149.485 140.727Z" fill="#231F20"/>
<path d="M160.797 140.727C162.408 140.727 163.714 139.421 163.714 137.81C163.714 136.2 162.408 134.894 160.797 134.894C159.187 134.894 157.881 136.2 157.881 137.81C157.881 139.421 159.187 140.727 160.797 140.727Z" fill="#231F20"/>
<path d="M172.109 140.727C173.72 140.727 175.026 139.421 175.026 137.81C175.026 136.2 173.72 134.894 172.109 134.894C170.499 134.894 169.193 136.2 169.193 137.81C169.193 139.421 170.499 140.727 172.109 140.727Z" fill="#231F20"/>
<path d="M183.421 140.727C185.032 140.727 186.337 139.421 186.337 137.81C186.337 136.2 185.032 134.894 183.421 134.894C181.811 134.894 180.505 136.2 180.505 137.81C180.505 139.421 181.811 140.727 183.421 140.727Z" fill="#231F20"/>
<path d="M104.72 152.173C106.31 151.915 107.389 150.417 107.131 148.827C106.873 147.237 105.375 146.157 103.785 146.416C102.195 146.674 101.116 148.172 101.374 149.761C101.632 151.351 103.13 152.431 104.72 152.173Z" fill="#231F20"/>
<path d="M116.028 152.172C117.618 151.914 118.697 150.416 118.439 148.826C118.181 147.236 116.683 146.157 115.094 146.415C113.504 146.673 112.424 148.171 112.682 149.761C112.94 151.35 114.438 152.43 116.028 152.172Z" fill="#231F20"/>
<path d="M127.34 152.171C128.93 151.913 130.009 150.415 129.751 148.825C129.493 147.235 127.995 146.156 126.405 146.414C124.815 146.672 123.736 148.17 123.994 149.76C124.252 151.35 125.75 152.429 127.34 152.171Z" fill="#231F20"/>
<path d="M138.651 152.17C140.241 151.912 141.321 150.414 141.063 148.824C140.805 147.234 139.307 146.155 137.717 146.413C136.127 146.671 135.047 148.169 135.305 149.758C135.563 151.348 137.061 152.428 138.651 152.17Z" fill="#231F20"/>
<path d="M149.485 152.259C151.096 152.259 152.402 150.953 152.402 149.343C152.402 147.732 151.096 146.426 149.485 146.426C147.875 146.426 146.569 147.732 146.569 149.343C146.569 150.953 147.875 152.259 149.485 152.259Z" fill="#231F20"/>
<path d="M160.797 152.259C162.408 152.259 163.714 150.953 163.714 149.343C163.714 147.732 162.408 146.426 160.797 146.426C159.187 146.426 157.881 147.732 157.881 149.343C157.881 150.953 159.187 152.259 160.797 152.259Z" fill="#231F20"/>
<path d="M172.109 152.259C173.72 152.259 175.026 150.953 175.026 149.343C175.026 147.732 173.72 146.426 172.109 146.426C170.499 146.426 169.193 147.732 169.193 149.343C169.193 150.953 170.499 152.259 172.109 152.259Z" fill="#231F20"/>
<path d="M183.421 152.259C185.032 152.259 186.337 150.953 186.337 149.343C186.337 147.732 185.032 146.426 183.421 146.426C181.811 146.426 180.505 147.732 180.505 149.343C180.505 150.953 181.811 152.259 183.421 152.259Z" fill="#231F20"/>
<path d="M104.72 163.699C106.31 163.44 107.39 161.942 107.131 160.353C106.873 158.763 105.375 157.683 103.786 157.941C102.196 158.199 101.116 159.697 101.374 161.287C101.632 162.877 103.13 163.957 104.72 163.699Z" fill="#231F20"/>
<path d="M116.028 163.701C117.618 163.443 118.698 161.945 118.44 160.355C118.182 158.766 116.684 157.686 115.094 157.944C113.504 158.202 112.425 159.7 112.683 161.29C112.941 162.88 114.439 163.959 116.028 163.701Z" fill="#231F20"/>
<path d="M127.34 163.7C128.93 163.442 130.009 161.944 129.751 160.354C129.493 158.764 127.995 157.685 126.405 157.943C124.816 158.201 123.736 159.699 123.994 161.289C124.252 162.879 125.75 163.958 127.34 163.7Z" fill="#231F20"/>
<path d="M138.652 163.699C140.241 163.441 141.321 161.943 141.063 160.353C140.805 158.763 139.307 157.684 137.717 157.942C136.127 158.2 135.048 159.698 135.306 161.288C135.564 162.877 137.062 163.957 138.652 163.699Z" fill="#231F20"/>
<path d="M149.485 163.788C151.096 163.788 152.402 162.482 152.402 160.872C152.402 159.261 151.096 157.955 149.485 157.955C147.875 157.955 146.569 159.261 146.569 160.872C146.569 162.482 147.875 163.788 149.485 163.788Z" fill="#231F20"/>
<path d="M160.797 163.788C162.408 163.788 163.714 162.482 163.714 160.872C163.714 159.261 162.408 157.955 160.797 157.955C159.187 157.955 157.881 159.261 157.881 160.872C157.881 162.482 159.187 163.788 160.797 163.788Z" fill="#231F20"/>
<path d="M172.109 163.788C173.72 163.788 175.026 162.482 175.026 160.872C175.026 159.261 173.72 157.955 172.109 157.955C170.499 157.955 169.193 159.261 169.193 160.872C169.193 162.482 170.499 163.788 172.109 163.788Z" fill="#231F20"/>
<path d="M183.421 163.788C185.032 163.788 186.337 162.482 186.337 160.872C186.337 159.261 185.032 157.955 183.421 157.955C181.811 157.955 180.505 159.261 180.505 160.872C180.505 162.482 181.811 163.788 183.421 163.788Z" fill="#231F20"/>
<path d="M107.16 172.896C107.418 171.306 106.339 169.808 104.749 169.55C103.159 169.292 101.661 170.371 101.403 171.961C101.145 173.551 102.224 175.049 103.814 175.307C105.404 175.565 106.902 174.486 107.16 172.896Z" fill="#231F20"/>
<path d="M118.473 172.899C118.731 171.309 117.651 169.812 116.061 169.553C114.472 169.295 112.974 170.375 112.716 171.965C112.457 173.555 113.537 175.053 115.127 175.311C116.717 175.569 118.215 174.489 118.473 172.899Z" fill="#231F20"/>
<path d="M129.783 172.896C130.041 171.307 128.961 169.809 127.371 169.551C125.781 169.292 124.283 170.372 124.025 171.962C123.767 173.552 124.847 175.05 126.437 175.308C128.027 175.566 129.525 174.486 129.783 172.896Z" fill="#231F20"/>
<path d="M141.096 172.897C141.354 171.307 140.274 169.809 138.684 169.551C137.095 169.293 135.597 170.372 135.338 171.962C135.08 173.552 136.16 175.05 137.75 175.308C139.34 175.566 140.838 174.487 141.096 172.897Z" fill="#231F20"/>
<path d="M149.485 175.32C151.096 175.32 152.402 174.015 152.402 172.404C152.402 170.793 151.096 169.488 149.485 169.488C147.875 169.488 146.569 170.793 146.569 172.404C146.569 174.015 147.875 175.32 149.485 175.32Z" fill="#231F20"/>
<path d="M160.797 175.32C162.408 175.32 163.714 174.015 163.714 172.404C163.714 170.793 162.408 169.488 160.797 169.488C159.187 169.488 157.881 170.793 157.881 172.404C157.881 174.015 159.187 175.32 160.797 175.32Z" fill="#231F20"/>
<path d="M172.109 175.32C173.72 175.32 175.026 174.015 175.026 172.404C175.026 170.793 173.72 169.488 172.109 169.488C170.499 169.488 169.193 170.793 169.193 172.404C169.193 174.015 170.499 175.32 172.109 175.32Z" fill="#231F20"/>
<path d="M183.421 175.32C185.032 175.32 186.337 174.015 186.337 172.404C186.337 170.793 185.032 169.488 183.421 169.488C181.811 169.488 180.505 170.793 180.505 172.404C180.505 174.015 181.811 175.32 183.421 175.32Z" fill="#231F20"/>
<path d="M105.357 186.625C106.845 186.009 107.552 184.303 106.935 182.815C106.319 181.327 104.613 180.62 103.125 181.237C101.637 181.853 100.93 183.559 101.547 185.047C102.163 186.535 103.869 187.241 105.357 186.625Z" fill="#231F20"/>
<path d="M116.664 186.627C118.152 186.01 118.858 184.304 118.242 182.816C117.626 181.328 115.92 180.622 114.432 181.238C112.944 181.854 112.237 183.56 112.853 185.048C113.47 186.536 115.176 187.243 116.664 186.627Z" fill="#231F20"/>
<path d="M127.976 186.627C129.464 186.01 130.171 184.304 129.555 182.816C128.938 181.328 127.232 180.622 125.744 181.238C124.256 181.854 123.55 183.56 124.166 185.048C124.782 186.536 126.488 187.243 127.976 186.627Z" fill="#231F20"/>
<path d="M139.289 186.627C140.777 186.01 141.484 184.305 140.868 182.817C140.251 181.328 138.545 180.622 137.057 181.238C135.569 181.855 134.863 183.561 135.479 185.049C136.095 186.537 137.801 187.243 139.289 186.627Z" fill="#231F20"/>
<path d="M149.485 186.849C151.096 186.849 152.402 185.543 152.402 183.933C152.402 182.322 151.096 181.017 149.485 181.017C147.875 181.017 146.569 182.322 146.569 183.933C146.569 185.543 147.875 186.849 149.485 186.849Z" fill="#231F20"/>
<path d="M160.797 186.849C162.408 186.849 163.714 185.543 163.714 183.933C163.714 182.322 162.408 181.017 160.797 181.017C159.187 181.017 157.881 182.322 157.881 183.933C157.881 185.543 159.187 186.849 160.797 186.849Z" fill="#231F20"/>
<path d="M172.109 186.849C173.72 186.849 175.026 185.543 175.026 183.933C175.026 182.322 173.72 181.017 172.109 181.017C170.499 181.017 169.193 182.322 169.193 183.933C169.193 185.543 170.499 186.849 172.109 186.849Z" fill="#231F20"/>
<path d="M183.421 186.849C185.032 186.849 186.337 185.543 186.337 183.933C186.337 182.322 185.032 181.017 183.421 181.017C181.811 181.017 180.505 182.322 180.505 183.933C180.505 185.543 181.811 186.849 183.421 186.849Z" fill="#231F20"/>
<path d="M105.357 198.158C106.845 197.541 107.552 195.835 106.935 194.347C106.319 192.859 104.613 192.153 103.125 192.769C101.637 193.385 100.93 195.091 101.547 196.579C102.163 198.067 103.869 198.774 105.357 198.158Z" fill="#231F20"/>
<path d="M116.667 198.159C118.155 197.543 118.861 195.837 118.245 194.349C117.629 192.861 115.923 192.154 114.435 192.77C112.947 193.387 112.24 195.093 112.856 196.581C113.473 198.069 115.179 198.775 116.667 198.159Z" fill="#231F20"/>
<path d="M127.976 198.159C129.464 197.543 130.171 195.837 129.555 194.349C128.938 192.861 127.232 192.154 125.744 192.771C124.256 193.387 123.55 195.093 124.166 196.581C124.782 198.069 126.488 198.776 127.976 198.159Z" fill="#231F20"/>
<path d="M139.289 198.159C140.777 197.543 141.484 195.837 140.867 194.349C140.251 192.861 138.545 192.154 137.057 192.771C135.569 193.387 134.862 195.093 135.479 196.581C136.095 198.069 137.801 198.776 139.289 198.159Z" fill="#231F20"/>
<path d="M149.485 198.382C151.096 198.382 152.402 197.076 152.402 195.465C152.402 193.855 151.096 192.549 149.485 192.549C147.875 192.549 146.569 193.855 146.569 195.465C146.569 197.076 147.875 198.382 149.485 198.382Z" fill="#231F20"/>
<path d="M160.797 198.382C162.408 198.382 163.714 197.076 163.714 195.465C163.714 193.855 162.408 192.549 160.797 192.549C159.187 192.549 157.881 193.855 157.881 195.465C157.881 197.076 159.187 198.382 160.797 198.382Z" fill="#231F20"/>
<path d="M172.109 198.382C173.72 198.382 175.026 197.076 175.026 195.465C175.026 193.855 173.72 192.549 172.109 192.549C170.499 192.549 169.193 193.855 169.193 195.465C169.193 197.076 170.499 198.382 172.109 198.382Z" fill="#231F20"/>
<path d="M183.421 198.382C185.032 198.382 186.337 197.076 186.337 195.465C186.337 193.855 185.032 192.549 183.421 192.549C181.811 192.549 180.505 193.855 180.505 195.465C180.505 197.076 181.811 198.382 183.421 198.382Z" fill="#231F20"/>
<path d="M104.723 209.825C106.312 209.567 107.392 208.069 107.134 206.479C106.876 204.889 105.378 203.809 103.788 204.068C102.198 204.326 101.119 205.824 101.377 207.413C101.635 209.003 103.133 210.083 104.723 209.825Z" fill="#231F20"/>
<path d="M116.031 209.824C117.621 209.566 118.7 208.068 118.442 206.478C118.184 204.888 116.686 203.809 115.096 204.067C113.507 204.325 112.427 205.823 112.685 207.413C112.943 209.003 114.441 210.082 116.031 209.824Z" fill="#231F20"/>
<path d="M127.343 209.826C128.932 209.568 130.012 208.07 129.754 206.48C129.496 204.891 127.998 203.811 126.408 204.069C124.818 204.327 123.739 205.825 123.997 207.415C124.255 209.005 125.753 210.084 127.343 209.826Z" fill="#231F20"/>
<path d="M138.654 209.825C140.244 209.567 141.324 208.069 141.066 206.479C140.808 204.889 139.31 203.81 137.72 204.068C136.13 204.326 135.05 205.824 135.308 207.414C135.567 209.004 137.065 210.083 138.654 209.825Z" fill="#231F20"/>
<path d="M149.485 209.914C151.096 209.914 152.402 208.608 152.402 206.998C152.402 205.387 151.096 204.081 149.485 204.081C147.875 204.081 146.569 205.387 146.569 206.998C146.569 208.608 147.875 209.914 149.485 209.914Z" fill="#231F20"/>
<path d="M160.797 209.914C162.408 209.914 163.714 208.608 163.714 206.998C163.714 205.387 162.408 204.081 160.797 204.081C159.187 204.081 157.881 205.387 157.881 206.998C157.881 208.608 159.187 209.914 160.797 209.914Z" fill="#231F20"/>
<path d="M172.109 209.914C173.72 209.914 175.026 208.608 175.026 206.998C175.026 205.387 173.72 204.081 172.109 204.081C170.499 204.081 169.193 205.387 169.193 206.998C169.193 208.608 170.499 209.914 172.109 209.914Z" fill="#231F20"/>
<path d="M183.421 209.914C185.032 209.914 186.337 208.608 186.337 206.998C186.337 205.387 185.032 204.081 183.421 204.081C181.811 204.081 180.505 205.387 180.505 206.998C180.505 208.608 181.811 209.914 183.421 209.914Z" fill="#231F20"/>
<path d="M104.723 221.354C106.313 221.096 107.392 219.598 107.134 218.008C106.876 216.418 105.378 215.339 103.788 215.597C102.199 215.855 101.119 217.353 101.377 218.943C101.635 220.532 103.133 221.612 104.723 221.354Z" fill="#231F20"/>
<path d="M116.031 221.353C117.621 221.095 118.701 219.597 118.443 218.007C118.185 216.418 116.687 215.338 115.097 215.596C113.507 215.854 112.427 217.352 112.686 218.942C112.944 220.532 114.442 221.611 116.031 221.353Z" fill="#231F20"/>
<path d="M127.343 221.355C128.933 221.097 130.012 219.599 129.754 218.01C129.496 216.42 127.998 215.34 126.408 215.598C124.818 215.856 123.739 217.354 123.997 218.944C124.255 220.534 125.753 221.613 127.343 221.355Z" fill="#231F20"/>
<path d="M138.655 221.354C140.244 221.096 141.324 219.598 141.066 218.008C140.808 216.418 139.31 215.339 137.72 215.597C136.13 215.855 135.051 217.353 135.309 218.943C135.567 220.533 137.065 221.612 138.655 221.354Z" fill="#231F20"/>
<path d="M149.485 221.443C151.096 221.443 152.402 220.137 152.402 218.527C152.402 216.916 151.096 215.61 149.485 215.61C147.875 215.61 146.569 216.916 146.569 218.527C146.569 220.137 147.875 221.443 149.485 221.443Z" fill="#231F20"/>
<path d="M160.797 221.443C162.408 221.443 163.714 220.137 163.714 218.527C163.714 216.916 162.408 215.61 160.797 215.61C159.187 215.61 157.881 216.916 157.881 218.527C157.881 220.137 159.187 221.443 160.797 221.443Z" fill="#231F20"/>
<path d="M172.109 221.443C173.72 221.443 175.026 220.137 175.026 218.527C175.026 216.916 173.72 215.61 172.109 215.61C170.499 215.61 169.193 216.916 169.193 218.527C169.193 220.137 170.499 221.443 172.109 221.443Z" fill="#231F20"/>
<path d="M183.421 221.443C185.032 221.443 186.337 220.137 186.337 218.527C186.337 216.916 185.032 215.61 183.421 215.61C181.811 215.61 180.505 216.916 180.505 218.527C180.505 220.137 181.811 221.443 183.421 221.443Z" fill="#231F20"/>
<path d="M107.161 230.553C107.419 228.964 106.339 227.466 104.749 227.208C103.159 226.95 101.661 228.029 101.403 229.619C101.145 231.209 102.225 232.707 103.815 232.965C105.405 233.223 106.903 232.143 107.161 230.553Z" fill="#231F20"/>
<path d="M118.473 230.554C118.731 228.964 117.652 227.466 116.062 227.208C114.472 226.95 112.974 228.029 112.716 229.619C112.458 231.209 113.537 232.707 115.127 232.965C116.717 233.223 118.215 232.144 118.473 230.554Z" fill="#231F20"/>
<path d="M129.783 230.554C130.041 228.964 128.961 227.466 127.372 227.208C125.782 226.95 124.284 228.03 124.026 229.62C123.768 231.209 124.847 232.707 126.437 232.966C128.027 233.224 129.525 232.144 129.783 230.554Z" fill="#231F20"/>
<path d="M141.096 230.554C141.354 228.965 140.274 227.467 138.685 227.208C137.095 226.95 135.597 228.03 135.339 229.62C135.081 231.21 136.16 232.708 137.75 232.966C139.34 233.224 140.838 232.144 141.096 230.554Z" fill="#231F20"/>
<path d="M149.485 232.975C151.096 232.975 152.402 231.669 152.402 230.059C152.402 228.448 151.096 227.143 149.485 227.143C147.875 227.143 146.569 228.448 146.569 230.059C146.569 231.669 147.875 232.975 149.485 232.975Z" fill="#231F20"/>
<path d="M160.797 232.975C162.408 232.975 163.714 231.669 163.714 230.059C163.714 228.448 162.408 227.143 160.797 227.143C159.187 227.143 157.881 228.448 157.881 230.059C157.881 231.669 159.187 232.975 160.797 232.975Z" fill="#231F20"/>
<path d="M172.109 232.975C173.72 232.975 175.026 231.669 175.026 230.059C175.026 228.448 173.72 227.143 172.109 227.143C170.499 227.143 169.193 228.448 169.193 230.059C169.193 231.669 170.499 232.975 172.109 232.975Z" fill="#231F20"/>
<path d="M183.421 232.975C185.032 232.975 186.337 231.669 186.337 230.059C186.337 228.448 185.032 227.143 183.421 227.143C181.811 227.143 180.505 228.448 180.505 230.059C180.505 231.669 181.811 232.975 183.421 232.975Z" fill="#231F20"/>
<path d="M194.733 129.198C196.344 129.198 197.649 127.892 197.649 126.281C197.649 124.671 196.344 123.365 194.733 123.365C193.123 123.365 191.817 124.671 191.817 126.281C191.817 127.892 193.123 129.198 194.733 129.198Z" fill="#231F20"/>
<path d="M206.277 129.088C207.884 128.974 209.093 127.579 208.979 125.972C208.865 124.366 207.47 123.156 205.863 123.27C204.257 123.385 203.047 124.78 203.161 126.386C203.276 127.993 204.671 129.202 206.277 129.088Z" fill="#231F20"/>
<path d="M217.587 129.086C219.193 128.971 220.403 127.576 220.289 125.97C220.174 124.363 218.779 123.153 217.173 123.268C215.566 123.382 214.356 124.777 214.471 126.384C214.585 127.99 215.98 129.2 217.587 129.086Z" fill="#231F20"/>
<path d="M228.899 129.086C230.506 128.972 231.715 127.577 231.601 125.97C231.487 124.364 230.092 123.154 228.485 123.268C226.879 123.383 225.669 124.778 225.783 126.384C225.897 127.991 227.293 129.201 228.899 129.086Z" fill="#231F20"/>
<path d="M240.212 129.084C241.818 128.969 243.028 127.574 242.914 125.968C242.799 124.361 241.404 123.152 239.798 123.266C238.191 123.38 236.981 124.775 237.096 126.382C237.21 127.988 238.605 129.198 240.212 129.084Z" fill="#231F20"/>
<path d="M251.524 129.085C253.131 128.97 254.34 127.575 254.226 125.969C254.112 124.362 252.717 123.152 251.11 123.267C249.504 123.381 248.294 124.776 248.408 126.383C248.523 127.989 249.918 129.199 251.524 129.085Z" fill="#231F20"/>
<path d="M265.4 126.522C265.558 124.919 264.388 123.491 262.785 123.332C261.182 123.174 259.754 124.345 259.596 125.947C259.437 127.55 260.608 128.978 262.211 129.137C263.813 129.295 265.241 128.125 265.4 126.522Z" fill="#231F20"/>
<path d="M276.711 126.522C276.869 124.919 275.699 123.491 274.096 123.332C272.493 123.174 271.065 124.345 270.906 125.947C270.748 127.55 271.919 128.978 273.521 129.137C275.124 129.295 276.552 128.124 276.711 126.522Z" fill="#231F20"/>
<path d="M288.021 126.525C288.18 124.922 287.009 123.494 285.406 123.336C283.803 123.177 282.376 124.348 282.217 125.951C282.058 127.553 283.229 128.981 284.832 129.14C286.435 129.298 287.863 128.128 288.021 126.525Z" fill="#231F20"/>
<path d="M194.733 140.727C196.344 140.727 197.649 139.421 197.649 137.81C197.649 136.2 196.344 134.894 194.733 134.894C193.123 134.894 191.817 136.2 191.817 137.81C191.817 139.421 193.123 140.727 194.733 140.727Z" fill="#231F20"/>
<path d="M201.509 142.064C202.991 141.452 203.696 139.754 203.084 138.272C202.472 136.791 200.774 136.086 199.293 136.698C197.811 137.31 197.106 139.007 197.718 140.489C198.33 141.971 200.027 142.676 201.509 142.064Z" fill="#231F20"/>
<path d="M212.775 142.094C214.256 141.482 214.961 139.785 214.349 138.303C213.737 136.821 212.04 136.116 210.558 136.728C209.076 137.34 208.371 139.038 208.983 140.519C209.595 142.001 211.293 142.706 212.775 142.094Z" fill="#231F20"/>
<path d="M224.044 142.125C225.525 141.513 226.23 139.815 225.618 138.333C225.006 136.852 223.309 136.147 221.827 136.759C220.345 137.371 219.64 139.068 220.252 140.55C220.864 142.032 222.562 142.737 224.044 142.125Z" fill="#231F20"/>
<path d="M235.312 142.155C236.794 141.543 237.499 139.846 236.887 138.364C236.275 136.882 234.578 136.177 233.096 136.789C231.614 137.401 230.909 139.099 231.521 140.58C232.133 142.062 233.831 142.767 235.312 142.155Z" fill="#231F20"/>
<path d="M246.578 142.182C248.06 141.57 248.765 139.873 248.153 138.391C247.541 136.909 245.843 136.204 244.362 136.816C242.88 137.428 242.175 139.126 242.787 140.608C243.399 142.089 245.096 142.794 246.578 142.182Z" fill="#231F20"/>
<path d="M263.717 140.503C265.205 139.886 265.911 138.18 265.295 136.692C264.679 135.204 262.973 134.498 261.485 135.114C259.997 135.73 259.29 137.436 259.906 138.924C260.523 140.412 262.229 141.119 263.717 140.503Z" fill="#231F20"/>
<path d="M275.029 140.503C276.517 139.886 277.224 138.18 276.608 136.692C275.991 135.204 274.285 134.498 272.797 135.114C271.309 135.73 270.603 137.436 271.219 138.924C271.836 140.412 273.541 141.119 275.029 140.503Z" fill="#231F20"/>
<path d="M286.339 140.504C287.827 139.888 288.534 138.182 287.918 136.694C287.301 135.206 285.595 134.499 284.107 135.116C282.619 135.732 281.913 137.438 282.529 138.926C283.145 140.414 284.851 141.12 286.339 140.504Z" fill="#231F20"/>
<path d="M194.733 152.259C196.344 152.259 197.649 150.953 197.649 149.343C197.649 147.732 196.344 146.426 194.733 146.426C193.123 146.426 191.817 147.732 191.817 149.343C191.817 150.953 193.123 152.259 194.733 152.259Z" fill="#231F20"/>
<path d="M208.738 150.458C209.355 148.97 208.648 147.264 207.16 146.647C205.672 146.031 203.966 146.738 203.35 148.226C202.733 149.714 203.44 151.42 204.928 152.036C206.416 152.652 208.122 151.946 208.738 150.458Z" fill="#231F20"/>
<path d="M220.05 150.46C220.666 148.972 219.96 147.266 218.472 146.65C216.984 146.034 215.278 146.74 214.661 148.228C214.045 149.716 214.752 151.422 216.24 152.038C217.728 152.655 219.434 151.948 220.05 150.46Z" fill="#231F20"/>
<path d="M231.362 150.459C231.978 148.971 231.272 147.265 229.783 146.649C228.295 146.033 226.59 146.739 225.973 148.227C225.357 149.715 226.063 151.421 227.551 152.038C229.039 152.654 230.745 151.947 231.362 150.459Z" fill="#231F20"/>
<path d="M242.674 150.459C243.29 148.97 242.583 147.265 241.095 146.648C239.607 146.032 237.901 146.738 237.285 148.226C236.669 149.715 237.375 151.42 238.863 152.037C240.351 152.653 242.057 151.947 242.674 150.459Z" fill="#231F20"/>
<path d="M253.985 150.458C254.602 148.97 253.895 147.264 252.407 146.647C250.919 146.031 249.213 146.738 248.597 148.226C247.98 149.714 248.687 151.42 250.175 152.036C251.663 152.652 253.369 151.946 253.985 150.458Z" fill="#231F20"/>
<path d="M263.079 152.164C264.669 151.906 265.748 150.408 265.49 148.819C265.232 147.229 263.734 146.149 262.144 146.407C260.555 146.665 259.475 148.163 259.733 149.753C259.991 151.343 261.489 152.423 263.079 152.164Z" fill="#231F20"/>
<path d="M274.39 152.163C275.98 151.905 277.06 150.407 276.802 148.817C276.544 147.228 275.046 146.148 273.456 146.406C271.866 146.664 270.786 148.162 271.045 149.752C271.303 151.342 272.801 152.421 274.39 152.163Z" fill="#231F20"/>
<path d="M285.699 152.163C287.289 151.905 288.368 150.407 288.11 148.817C287.852 147.227 286.354 146.147 284.764 146.405C283.175 146.663 282.095 148.161 282.353 149.751C282.611 151.341 284.109 152.421 285.699 152.163Z" fill="#231F20"/>
<path d="M194.733 163.788C196.344 163.788 197.649 162.482 197.649 160.872C197.649 159.261 196.344 157.955 194.733 157.955C193.123 157.955 191.817 159.261 191.817 160.872C191.817 162.482 193.123 163.788 194.733 163.788Z" fill="#231F20"/>
<path d="M208.736 161.989C209.352 160.501 208.645 158.795 207.157 158.178C205.669 157.562 203.963 158.269 203.347 159.757C202.731 161.245 203.437 162.951 204.925 163.567C206.413 164.183 208.119 163.477 208.736 161.989Z" fill="#231F20"/>
<path d="M220.047 161.988C220.664 160.5 219.957 158.794 218.469 158.178C216.981 157.561 215.275 158.268 214.659 159.756C214.042 161.244 214.749 162.95 216.237 163.566C217.725 164.182 219.431 163.476 220.047 161.988Z" fill="#231F20"/>
<path d="M231.359 161.987C231.975 160.499 231.269 158.793 229.781 158.177C228.293 157.56 226.587 158.267 225.97 159.755C225.354 161.243 226.061 162.949 227.549 163.565C229.037 164.182 230.743 163.475 231.359 161.987Z" fill="#231F20"/>
<path d="M242.671 161.989C243.287 160.501 242.581 158.795 241.093 158.179C239.605 157.563 237.899 158.269 237.282 159.757C236.666 161.245 237.373 162.951 238.861 163.568C240.349 164.184 242.054 163.477 242.671 161.989Z" fill="#231F20"/>
<path d="M253.983 161.989C254.599 160.501 253.892 158.795 252.404 158.178C250.916 157.562 249.21 158.269 248.594 159.757C247.978 161.245 248.684 162.951 250.172 163.567C251.66 164.183 253.366 163.477 253.983 161.989Z" fill="#231F20"/>
<path d="M263.079 163.694C264.669 163.435 265.749 161.937 265.491 160.348C265.233 158.758 263.735 157.678 262.145 157.936C260.555 158.194 259.475 159.692 259.733 161.282C259.991 162.872 261.489 163.952 263.079 163.694Z" fill="#231F20"/>
<path d="M274.391 163.692C275.981 163.434 277.06 161.936 276.802 160.347C276.544 158.757 275.046 157.677 273.456 157.935C271.866 158.193 270.787 159.691 271.045 161.281C271.303 162.871 272.801 163.95 274.391 163.692Z" fill="#231F20"/>
<path d="M285.699 163.692C287.289 163.434 288.369 161.936 288.11 160.346C287.852 158.756 286.354 157.677 284.765 157.935C283.175 158.193 282.095 159.691 282.353 161.28C282.611 162.87 284.109 163.95 285.699 163.692Z" fill="#231F20"/>
<path d="M194.733 175.32C196.344 175.32 197.649 174.015 197.649 172.404C197.649 170.793 196.344 169.488 194.733 169.488C193.123 169.488 191.817 170.793 191.817 172.404C191.817 174.015 193.123 175.32 194.733 175.32Z" fill="#231F20"/>
<path d="M206.359 175.202C207.962 175.044 209.132 173.616 208.973 172.013C208.814 170.41 207.386 169.239 205.784 169.398C204.181 169.557 203.01 170.985 203.169 172.588C203.328 174.191 204.756 175.361 206.359 175.202Z" fill="#231F20"/>
<path d="M217.671 175.201C219.273 175.043 220.444 173.615 220.285 172.012C220.126 170.409 218.698 169.238 217.095 169.397C215.493 169.556 214.322 170.984 214.481 172.587C214.64 174.19 216.068 175.36 217.671 175.201Z" fill="#231F20"/>
<path d="M228.982 175.2C230.585 175.042 231.756 173.614 231.597 172.011C231.438 170.408 230.01 169.237 228.407 169.396C226.804 169.555 225.634 170.983 225.793 172.586C225.952 174.189 227.38 175.359 228.982 175.2Z" fill="#231F20"/>
<path d="M240.294 175.199C241.897 175.041 243.067 173.613 242.909 172.01C242.75 170.407 241.322 169.237 239.719 169.395C238.116 169.554 236.946 170.982 237.105 172.585C237.263 174.188 238.691 175.358 240.294 175.199Z" fill="#231F20"/>
<path d="M251.606 175.195C253.209 175.036 254.379 173.608 254.221 172.006C254.062 170.403 252.634 169.232 251.031 169.391C249.428 169.55 248.258 170.978 248.416 172.581C248.575 174.184 250.003 175.354 251.606 175.195Z" fill="#231F20"/>
<path d="M265.529 172.897C265.787 171.307 264.707 169.809 263.118 169.551C261.528 169.293 260.03 170.373 259.772 171.962C259.514 173.552 260.593 175.05 262.183 175.308C263.773 175.566 265.271 174.487 265.529 172.897Z" fill="#231F20"/>
<path d="M276.839 172.897C277.097 171.308 276.017 169.81 274.427 169.551C272.838 169.293 271.34 170.373 271.082 171.963C270.823 173.553 271.903 175.051 273.493 175.309C275.083 175.567 276.581 174.487 276.839 172.897Z" fill="#231F20"/>
<path d="M288.151 172.901C288.409 171.311 287.33 169.813 285.74 169.555C284.15 169.297 282.652 170.377 282.394 171.966C282.136 173.556 283.216 175.054 284.805 175.312C286.395 175.57 287.893 174.491 288.151 172.901Z" fill="#231F20"/>
<path d="M194.733 186.849C196.344 186.849 197.649 185.543 197.649 183.933C197.649 182.322 196.344 181.017 194.733 181.017C193.123 181.017 191.817 182.322 191.817 183.933C191.817 185.543 193.123 186.849 194.733 186.849Z" fill="#231F20"/>
<path d="M201.382 188.006C202.864 187.394 203.569 185.696 202.957 184.214C202.345 182.733 200.648 182.028 199.166 182.64C197.684 183.252 196.979 184.949 197.591 186.431C198.203 187.913 199.901 188.618 201.382 188.006Z" fill="#231F20"/>
<path d="M212.651 188.036C214.133 187.424 214.838 185.727 214.226 184.245C213.614 182.763 211.917 182.058 210.435 182.67C208.953 183.282 208.248 184.98 208.86 186.461C209.472 187.943 211.169 188.648 212.651 188.036Z" fill="#231F20"/>
<path d="M223.92 188.067C225.402 187.455 226.107 185.757 225.495 184.275C224.883 182.794 223.185 182.089 221.704 182.701C220.222 183.313 219.517 185.01 220.129 186.492C220.741 187.974 222.438 188.679 223.92 188.067Z" fill="#231F20"/>
<path d="M235.186 188.097C236.667 187.485 237.373 185.788 236.761 184.306C236.148 182.824 234.451 182.119 232.969 182.731C231.488 183.343 230.783 185.041 231.395 186.522C232.007 188.004 233.704 188.709 235.186 188.097Z" fill="#231F20"/>
<path d="M246.455 188.128C247.936 187.516 248.641 185.818 248.029 184.336C247.417 182.855 245.72 182.15 244.238 182.762C242.756 183.374 242.051 185.071 242.663 186.553C243.275 188.035 244.973 188.74 246.455 188.128Z" fill="#231F20"/>
<path d="M263.717 186.627C265.205 186.01 265.912 184.304 265.295 182.816C264.679 181.328 262.973 180.622 261.485 181.238C259.997 181.854 259.29 183.56 259.907 185.048C260.523 186.536 262.229 187.243 263.717 186.627Z" fill="#231F20"/>
<path d="M275.03 186.624C276.518 186.007 277.224 184.301 276.608 182.813C275.992 181.325 274.286 180.619 272.798 181.235C271.31 181.851 270.603 183.557 271.22 185.045C271.836 186.533 273.542 187.24 275.03 186.624Z" fill="#231F20"/>
<path d="M286.336 186.625C287.824 186.009 288.531 184.303 287.915 182.815C287.298 181.327 285.592 180.62 284.104 181.237C282.616 181.853 281.91 183.559 282.526 185.047C283.142 186.535 284.848 187.241 286.336 186.625Z" fill="#231F20"/>
<path d="M194.733 198.382C196.344 198.382 197.649 197.076 197.649 195.465C197.649 193.855 196.344 192.549 194.733 192.549C193.123 192.549 191.817 193.855 191.817 195.465C191.817 197.076 193.123 198.382 194.733 198.382Z" fill="#231F20"/>
<path d="M201.351 199.493C202.833 198.881 203.538 197.184 202.926 195.702C202.314 194.22 200.617 193.515 199.135 194.127C197.653 194.739 196.948 196.437 197.56 197.919C198.172 199.4 199.869 200.105 201.351 199.493Z" fill="#231F20"/>
<path d="M212.62 199.524C214.102 198.912 214.807 197.214 214.195 195.733C213.583 194.251 211.886 193.546 210.404 194.158C208.922 194.77 208.217 196.467 208.829 197.949C209.441 199.431 211.138 200.136 212.62 199.524Z" fill="#231F20"/>
<path d="M223.889 199.554C225.371 198.942 226.076 197.245 225.464 195.763C224.852 194.281 223.154 193.576 221.673 194.188C220.191 194.8 219.486 196.498 220.098 197.98C220.71 199.461 222.407 200.166 223.889 199.554Z" fill="#231F20"/>
<path d="M235.158 199.585C236.64 198.973 237.345 197.276 236.733 195.794C236.121 194.312 234.423 193.607 232.942 194.219C231.46 194.831 230.755 196.528 231.367 198.01C231.979 199.492 233.676 200.197 235.158 199.585Z" fill="#231F20"/>
<path d="M246.424 199.615C247.905 199.003 248.61 197.306 247.998 195.824C247.386 194.343 245.689 193.637 244.207 194.249C242.725 194.862 242.02 196.559 242.632 198.041C243.244 199.522 244.942 200.227 246.424 199.615Z" fill="#231F20"/>
<path d="M263.717 198.156C265.205 197.54 265.912 195.834 265.295 194.346C264.679 192.858 262.973 192.151 261.485 192.767C259.997 193.384 259.29 195.09 259.907 196.578C260.523 198.066 262.229 198.772 263.717 198.156Z" fill="#231F20"/>
<path d="M275.03 198.156C276.518 197.54 277.224 195.834 276.608 194.346C275.992 192.858 274.286 192.151 272.798 192.768C271.31 193.384 270.603 195.09 271.219 196.578C271.836 198.066 273.542 198.773 275.03 198.156Z" fill="#231F20"/>
<path d="M286.34 198.158C287.828 197.541 288.534 195.835 287.918 194.347C287.301 192.859 285.596 192.153 284.107 192.769C282.619 193.385 281.913 195.091 282.529 196.579C283.146 198.067 284.852 198.774 286.34 198.158Z" fill="#231F20"/>
<path d="M194.733 209.914C196.344 209.914 197.649 208.608 197.649 206.998C197.649 205.387 196.344 204.081 194.733 204.081C193.123 204.081 191.817 205.387 191.817 206.998C191.817 208.608 193.123 209.914 194.733 209.914Z" fill="#231F20"/>
<path d="M208.737 208.113C209.353 206.625 208.647 204.919 207.159 204.303C205.671 203.686 203.965 204.393 203.348 205.881C202.732 207.369 203.439 209.075 204.927 209.691C206.415 210.308 208.121 209.601 208.737 208.113Z" fill="#231F20"/>
<path d="M220.049 208.112C220.665 206.624 219.958 204.918 218.47 204.302C216.982 203.686 215.276 204.392 214.66 205.88C214.044 207.368 214.75 209.074 216.238 209.69C217.726 210.307 219.432 209.6 220.049 208.112Z" fill="#231F20"/>
<path d="M231.36 208.111C231.977 206.623 231.27 204.917 229.782 204.301C228.294 203.685 226.588 204.391 225.972 205.879C225.355 207.367 226.062 209.073 227.55 209.689C229.038 210.306 230.744 209.599 231.36 208.111Z" fill="#231F20"/>
<path d="M242.672 208.114C243.288 206.626 242.582 204.92 241.094 204.303C239.606 203.687 237.9 204.394 237.283 205.882C236.667 207.37 237.374 209.076 238.862 209.692C240.35 210.308 242.056 209.602 242.672 208.114Z" fill="#231F20"/>
<path d="M253.984 208.113C254.6 206.625 253.894 204.919 252.406 204.303C250.918 203.686 249.212 204.393 248.595 205.881C247.979 207.369 248.686 209.075 250.174 209.691C251.662 210.307 253.367 209.601 253.984 208.113Z" fill="#231F20"/>
<path d="M263.082 209.82C264.672 209.562 265.751 208.064 265.493 206.474C265.235 204.884 263.737 203.804 262.147 204.063C260.557 204.321 259.478 205.819 259.736 207.408C259.994 208.998 261.492 210.078 263.082 209.82Z" fill="#231F20"/>
<path d="M274.393 209.819C275.983 209.561 277.063 208.063 276.805 206.473C276.547 204.883 275.049 203.803 273.459 204.061C271.869 204.319 270.789 205.817 271.047 207.407C271.306 208.997 272.804 210.077 274.393 209.819Z" fill="#231F20"/>
<path d="M285.702 209.818C287.291 209.56 288.371 208.062 288.113 206.472C287.855 204.882 286.357 203.803 284.767 204.061C283.177 204.319 282.098 205.817 282.356 207.407C282.614 208.996 284.112 210.076 285.702 209.818Z" fill="#231F20"/>
<path d="M194.733 221.443C196.344 221.443 197.649 220.137 197.649 218.527C197.649 216.916 196.344 215.61 194.733 215.61C193.123 215.61 191.817 216.916 191.817 218.527C191.817 220.137 193.123 221.443 194.733 221.443Z" fill="#231F20"/>
<path d="M208.737 219.644C209.354 218.156 208.647 216.45 207.159 215.834C205.671 215.217 203.965 215.924 203.349 217.412C202.732 218.9 203.439 220.606 204.927 221.222C206.415 221.838 208.121 221.132 208.737 219.644Z" fill="#231F20"/>
<path d="M220.049 219.643C220.666 218.155 219.959 216.449 218.471 215.833C216.983 215.216 215.277 215.923 214.661 217.411C214.044 218.899 214.751 220.605 216.239 221.221C217.727 221.838 219.433 221.131 220.049 219.643Z" fill="#231F20"/>
<path d="M231.358 219.642C231.974 218.154 231.267 216.448 229.779 215.832C228.291 215.215 226.586 215.922 225.969 217.41C225.353 218.898 226.059 220.604 227.547 221.22C229.035 221.837 230.741 221.13 231.358 219.642Z" fill="#231F20"/>
<path d="M242.669 219.641C243.286 218.153 242.579 216.447 241.091 215.831C239.603 215.215 237.897 215.921 237.281 217.409C236.664 218.897 237.371 220.603 238.859 221.22C240.347 221.836 242.053 221.129 242.669 219.641Z" fill="#231F20"/>
<path d="M253.981 219.644C254.598 218.156 253.891 216.45 252.403 215.833C250.915 215.217 249.209 215.924 248.593 217.412C247.976 218.9 248.683 220.606 250.171 221.222C251.659 221.838 253.365 221.132 253.981 219.644Z" fill="#231F20"/>
<path d="M263.082 221.349C264.672 221.091 265.751 219.593 265.493 218.003C265.235 216.413 263.737 215.334 262.148 215.592C260.558 215.85 259.478 217.348 259.736 218.937C259.994 220.527 261.492 221.607 263.082 221.349Z" fill="#231F20"/>
<path d="M274.394 221.348C275.984 221.09 277.063 219.592 276.805 218.002C276.547 216.412 275.049 215.332 273.459 215.59C271.869 215.849 270.79 217.347 271.048 218.936C271.306 220.526 272.804 221.606 274.394 221.348Z" fill="#231F20"/>
<path d="M285.702 221.347C287.292 221.089 288.371 219.591 288.113 218.001C287.855 216.411 286.357 215.332 284.768 215.59C283.178 215.848 282.098 217.346 282.356 218.936C282.614 220.526 284.112 221.605 285.702 221.347Z" fill="#231F20"/>
<path d="M194.733 232.975C196.344 232.975 197.649 231.669 197.649 230.059C197.649 228.448 196.344 227.143 194.733 227.143C193.123 227.143 191.817 228.448 191.817 230.059C191.817 231.669 193.123 232.975 194.733 232.975Z" fill="#231F20"/>
<path d="M206.361 232.855C207.964 232.696 209.135 231.268 208.976 229.665C208.817 228.062 207.389 226.892 205.786 227.051C204.183 227.21 203.013 228.638 203.172 230.24C203.33 231.843 204.759 233.014 206.361 232.855Z" fill="#231F20"/>
<path d="M217.673 232.854C219.276 232.695 220.447 231.267 220.288 229.664C220.129 228.061 218.701 226.891 217.098 227.05C215.495 227.209 214.325 228.637 214.484 230.239C214.642 231.842 216.07 233.013 217.673 232.854Z" fill="#231F20"/>
<path d="M228.985 232.853C230.588 232.694 231.758 231.266 231.6 229.663C231.441 228.06 230.013 226.89 228.41 227.049C226.807 227.208 225.637 228.636 225.795 230.238C225.954 231.841 227.382 233.012 228.985 232.853Z" fill="#231F20"/>
<path d="M240.297 232.852C241.9 232.693 243.07 231.265 242.911 229.662C242.752 228.06 241.324 226.889 239.722 227.048C238.119 227.207 236.948 228.635 237.107 230.238C237.266 231.84 238.694 233.011 240.297 232.852Z" fill="#231F20"/>
<path d="M251.609 232.851C253.212 232.692 254.382 231.264 254.223 229.661C254.064 228.059 252.636 226.888 251.034 227.047C249.431 227.206 248.26 228.634 248.419 230.237C248.578 231.839 250.006 233.01 251.609 232.851Z" fill="#231F20"/>
<path d="M265.529 230.555C265.787 228.965 264.708 227.467 263.118 227.209C261.528 226.951 260.03 228.03 259.772 229.62C259.514 231.21 260.594 232.708 262.184 232.966C263.773 233.224 265.271 232.145 265.529 230.555Z" fill="#231F20"/>
<path d="M276.839 230.555C277.097 228.965 276.018 227.467 274.428 227.209C272.838 226.951 271.34 228.031 271.082 229.621C270.824 231.21 271.903 232.708 273.493 232.967C275.083 233.225 276.581 232.145 276.839 230.555Z" fill="#231F20"/>
<path d="M288.152 230.555C288.41 228.966 287.33 227.468 285.74 227.21C284.15 226.952 282.652 228.031 282.394 229.621C282.136 231.211 283.216 232.709 284.806 232.967C286.396 233.225 287.894 232.145 288.152 230.555Z" fill="#231F20"/>
</mask>
<g mask="url(#mask0_1_2993)">
<path d="M112.957 103.93C112.957 58.763 149.573 22.1475 194.74 22.1475C239.906 22.1475 276.519 58.763 276.519 103.93C276.519 149.096 239.903 230.412 194.74 230.412C149.576 230.412 112.957 149.093 112.957 103.93Z" fill="#231F20"/>
</g>
<path d="M194.01 231.708C183.025 231.708 172.031 227.091 161.338 217.985C152.009 210.043 142.92 198.544 135.055 184.75C120.403 159.028 110.935 127.305 110.935 103.93C110.935 93.0201 113.083 82.2174 117.258 72.1383C121.433 62.0591 127.552 52.901 135.267 45.1867C142.981 37.4725 152.139 31.3532 162.218 27.1783C172.297 23.0034 183.1 20.8546 194.01 20.8546C204.919 20.8546 215.722 23.0034 225.801 27.1783C235.88 31.3532 245.038 37.4725 252.753 45.1867C260.467 52.901 266.586 62.0591 270.761 72.1383C274.936 82.2174 277.085 93.0201 277.085 103.93C277.085 127.305 267.617 159.015 252.961 184.75C245.096 198.55 236.011 210.043 226.682 217.985C215.985 227.091 204.994 231.708 194.01 231.708ZM194.01 23.4436C183.44 23.4436 172.974 25.5255 163.209 29.5703C153.445 33.6152 144.572 39.5438 137.099 47.0176C129.625 54.4915 123.697 63.3643 119.652 73.1293C115.608 82.8943 113.526 93.3603 113.527 103.93C113.527 126.887 122.862 158.108 137.307 183.466C145.026 197.011 153.914 208.264 163.016 216.012C173.23 224.706 183.657 229.116 194.01 229.116C204.362 229.116 214.79 224.706 225 216.012C234.102 208.264 242.993 197.011 250.709 183.466C265.157 158.108 274.492 126.887 274.492 103.93C274.493 93.3603 272.412 82.8943 268.367 73.1293C264.323 63.3643 258.394 54.4915 250.921 47.0176C243.447 39.5438 234.575 33.6152 224.81 29.5703C215.045 25.5255 204.579 23.4436 194.01 23.4436Z" fill="#231F20"/>
<path d="M263.352 158.14H124.748V163.759H263.352V158.14Z" fill="#231F20"/>
<path d="M196.926 160.949H191.093V230.412H196.926V160.949Z" fill="#231F20"/>
<path d="M252.442 145.458H135.655L194.049 44.3177L252.442 145.458ZM161.357 130.627H226.772L194.065 73.9763L161.357 130.627Z" fill="white"/>
<path d="M200.046 257.018H187.97V428.285H200.046V257.018Z" fill="#A90D2C"/>
<path d="M197.072 257.371H190.944V428.285H197.072V257.371Z" fill="#231F20"/>
<path d="M274.93 119C275.612 122.589 276.045 126.22 276.226 129.868C276.38 133.529 276.328 137.195 276.071 140.85C275.837 144.508 275.397 148.15 274.839 151.773C274.282 155.396 273.592 159.002 272.795 162.583C269.509 176.916 264.608 190.831 258.184 204.059C254.969 210.705 251.313 217.13 247.242 223.29C243.16 229.515 238.512 235.349 233.357 240.719C230.743 243.425 227.949 245.949 224.994 248.276C222.011 250.64 218.829 252.741 215.483 254.556C214.631 254.993 213.792 255.453 212.91 255.852L211.614 256.454L210.273 257.002L209.605 257.277C209.378 257.365 209.148 257.443 208.922 257.524L207.554 258.01C207.097 258.169 206.631 258.298 206.167 258.441C205.704 258.583 205.241 258.732 204.768 258.842C200.986 259.858 197.081 260.335 193.167 260.262L191.699 260.216L190.235 260.093L189.506 260.028L188.78 259.928L187.328 259.724C185.409 259.397 183.512 258.946 181.651 258.373C180.715 258.11 179.811 257.767 178.897 257.443C178.437 257.29 177.999 257.089 177.552 256.915C177.105 256.74 176.655 256.555 176.217 256.357L174.905 255.751L174.257 255.447L173.609 255.123L172.332 254.475C171.911 254.248 171.499 254.008 171.081 253.771C167.791 251.874 164.668 249.699 161.746 247.271C158.849 244.881 156.108 242.308 153.538 239.569C148.467 234.126 143.896 228.237 139.88 221.974C137.867 218.87 135.966 215.703 134.177 212.474C132.389 209.244 130.705 205.966 129.126 202.639C122.811 189.354 118.028 175.393 114.868 161.027C114.104 157.439 113.456 153.829 112.924 150.198C112.406 146.566 111.997 142.92 111.822 139.256C111.62 135.597 111.63 131.929 111.852 128.271C112.104 124.627 112.607 121.004 113.358 117.429C112.503 124.634 112.528 131.917 113.433 139.116C114.316 146.289 115.724 153.387 117.645 160.353C119.512 167.325 121.766 174.186 124.398 180.907C125.717 184.263 127.094 187.591 128.568 190.877C130.043 194.163 131.605 197.403 133.241 200.598C134.877 203.793 136.611 206.949 138.425 210.037C140.24 213.125 142.152 216.168 144.164 219.11C148.137 225.021 152.611 230.581 157.537 235.726C159.984 238.256 162.581 240.636 165.313 242.855C168.011 245.055 170.891 247.022 173.923 248.733C174.302 248.94 174.675 249.157 175.054 249.361L176.204 249.948L176.778 250.243L177.364 250.512L178.531 251.05C180.095 251.729 181.697 252.318 183.33 252.812C184.949 253.303 186.597 253.69 188.265 253.972L189.515 254.141L190.141 254.228L190.769 254.28L192.027 254.384L193.284 254.419C196.657 254.494 200.023 254.091 203.283 253.224C206.585 252.335 209.775 251.077 212.794 249.472C218.905 246.257 224.43 241.815 229.436 236.834C234.433 231.765 238.975 226.267 243.01 220.403C245.054 217.486 246.986 214.45 248.842 211.378C250.699 208.307 252.452 205.173 254.121 201.982C255.789 198.79 257.377 195.566 258.874 192.293C260.371 189.02 261.791 185.702 263.126 182.355C265.805 175.653 268.114 168.809 270.044 161.853C272.024 154.903 273.508 147.82 274.483 140.659C275.491 133.483 275.641 126.212 274.93 119Z" fill="#231F20"/>
<path d="M313.49 373.365H243.22C242.447 373.365 241.705 373.058 241.158 372.511C240.611 371.964 240.304 371.222 240.304 370.449C240.304 369.675 240.611 368.933 241.158 368.386C241.705 367.839 242.447 367.532 243.22 367.532H313.49C314.263 367.532 315.005 367.839 315.552 368.386C316.099 368.933 316.406 369.675 316.406 370.449C316.406 371.222 316.099 371.964 315.552 372.511C315.005 373.058 314.263 373.365 313.49 373.365Z" fill="#231F20"/>
<path d="M313.49 395.328H243.22C242.447 395.328 241.705 395.02 241.158 394.473C240.611 393.927 240.304 393.185 240.304 392.411C240.304 391.638 240.611 390.896 241.158 390.349C241.705 389.802 242.447 389.495 243.22 389.495H313.49C314.263 389.495 315.005 389.802 315.552 390.349C316.099 390.896 316.406 391.638 316.406 392.411C316.406 393.185 316.099 393.927 315.552 394.473C315.005 395.02 314.263 395.328 313.49 395.328Z" fill="#231F20"/>
</svg>
