<svg width="26" height="26" viewBox="0 0 26 26" fill="none" xmlns="http://www.w3.org/2000/svg">
<path d="M9.75 9.75H16.25" stroke="#2A707C" stroke-width="2" stroke-linecap="round" stroke-linejoin="round"/>
<path d="M9.75 13H16.25" stroke="#2A707C" stroke-width="2" stroke-linecap="round" stroke-linejoin="round"/>
<path d="M9.75 16.25H13" stroke="#2A707C" stroke-width="2" stroke-linecap="round" stroke-linejoin="round"/>
<path d="M15.9135 21.9375H4.875C4.65951 21.9375 4.45285 21.8519 4.30048 21.6995C4.1481 21.5472 4.0625 21.3405 4.0625 21.125V4.875C4.0625 4.65951 4.1481 4.45285 4.30048 4.30048C4.45285 4.1481 4.65951 4.0625 4.875 4.0625H21.125C21.3405 4.0625 21.5472 4.1481 21.6995 4.30048C21.8519 4.45285 21.9375 4.65951 21.9375 4.875V15.9135C21.9375 16.0202 21.9165 16.1258 21.8757 16.2244C21.8348 16.323 21.775 16.4125 21.6995 16.488L16.488 21.6995C16.4125 21.775 16.323 21.8348 16.2244 21.8757C16.1258 21.9165 16.0202 21.9375 15.9135 21.9375V21.9375Z" stroke="#2A707C" stroke-width="2" stroke-linecap="round" stroke-linejoin="round"/>
<path d="M21.864 16.2492H16.25V21.8636" stroke="#2A707C" stroke-width="2" stroke-linecap="round" stroke-linejoin="round"/>
</svg>
